SplineFontDB: 3.0
FontName: Comic_Chris
FullName: Comic_Chris
FamilyName: Comic_Chris
Weight: Medium
Copyright: Created by Christopher Bulliner with FontForge 2.0 (http://fontforge.sf.net)
UComments: "2012-9-30: Created." 
Version: 002.000
ItalicAngle: 0
UnderlinePosition: -102
UnderlineWidth: 51
Ascent: 819
Descent: 205
LayerCount: 2
Layer: 0 0 "Back"  1
Layer: 1 0 "Fore"  0
NeedsXUIDChange: 1
XUID: [1021 598 219829445 6164026]
FSType: 8
OS2Version: 0
OS2_WeightWidthSlopeOnly: 0
OS2_UseTypoMetrics: 1
CreationTime: 1348978564
ModificationTime: 1355888000
PfmFamily: 17
TTFWeight: 500
TTFWidth: 5
LineGap: 92
VLineGap: 0
OS2TypoAscent: 0
OS2TypoAOffset: 1
OS2TypoDescent: 0
OS2TypoDOffset: 1
OS2TypoLinegap: 92
OS2WinAscent: 0
OS2WinAOffset: 1
OS2WinDescent: 0
OS2WinDOffset: 1
HheadAscent: 0
HheadAOffset: 1
HheadDescent: 0
HheadDOffset: 1
OS2Vendor: 'PfEd'
Lookup: 258 0 0 "kerning"  {"kerning-1" [150,0,2] "kerning-2" [153,15,0] } ['kern' ('DFLT' <'dflt' > 'latn' <'dflt' > ) ]
MarkAttachClasses: 1
DEI: 91125
KernClass2: 14 17 "kerning-1" 
 1 A
 1 E
 1 F
 1 I
 1 K
 1 L
 1 P
 1 R
 1 T
 1 U
 3 V W
 1 X
 1 Y
 1 a
 1 c
 1 d
 3 e g
 1 j
 1 m
 5 n p r
 3 o q
 1 s
 1 t
 1 u
 1 v
 1 w
 1 x
 1 y
 1 z

StartChar: A
Encoding: 65 65 0
Width: 857
VWidth: 0
Flags: HW
HStem: 321 105<435.064 564>
LayerCount: 2
Fore
SplineSet
717 51 m 0
 708 62 692 98 681 132 c 0
 670 166 648 220 632 253 c 2
 603 314 l 1
 439 321 l 1
 275 328 l 1
 238 249 l 2
 165 96 127 46 84 46 c 0
 57 46 41 67 41 93 c 0
 41 112 49 133 66 151 c 0
 85 171 116 220 136 261 c 0
 258 515 429 770 477 770 c 0
 478 770 478 770 479 770 c 0
 506 765 599 593 656 443 c 0
 672 402 714 302 749 222 c 0
 785 139 800 97 800 73 c 0
 800 64 798 58 794 53 c 0
 782 38 768 31 754 31 c 0
 741 31 728 38 717 51 c 0
529 513 m 2
 510 561 491 609 486 620 c 0
 481 631 472 637 464 632 c 0
 449 623 349 454 349 437 c 0
 349 431 398 426 457 426 c 2
 564 426 l 1
 529 513 l 2
EndSplineSet
Validated: 1
EndChar

StartChar: B
Encoding: 66 66 1
Width: 826
VWidth: 0
Flags: HW
HStem: 71 87<226 617> 684 101<271 614>
VStem: 149 82<444 656>
LayerCount: 2
Fore
SplineSet
80 60 m 0
 54 85 41 100 41 112 c 0
 41 123 50 133 68 145 c 0
 92 162 102 201 122 366 c 0
 135 476 148 599 149 640 c 0
 150 681 156 723 162 732 c 0
 174 751 380 784 481 784 c 0
 573 784 706 742 750 698 c 0
 774 674 783 661 783 628 c 0
 783 614 781 598 779 576 c 0
 772 506 763 486 726 457 c 2
 683 423 l 1
 711 365 l 2
 730 327 739 293 739 261 c 0
 739 207 712 154 653 82 c 0
 650 78 573 73 481 71 c 0
 331 68 237 56 151 30 c 0
 147 29 143 28 139 28 c 0
 122 28 103 39 80 60 c 0
478 158 m 0
 484 158 489 158 495 158 c 0
 554 158 607 163 617 169 c 0
 634 180 646 231 646 272 c 0
 646 292 643 310 636 320 c 0
 626 335 595 340 485 340 c 0
 465 340 443 340 418 340 c 0
 306 339 213 335 210 332 c 0
 207 329 201 285 195 233 c 2
 185 138 l 1
 272 149 l 2
 315 154 393 158 457 158 c 0
 464 158 471 158 478 158 c 0
608 479 m 0
 649 500 694 567 694 609 c 0
 694 652 605 683 478 684 c 0
 470 684 462 684 454 684 c 0
 260 684 233 671 231 590 c 0
 230 560 225 522 219 506 c 0
 213 491 209 480 209 470 c 0
 209 450 229 442 284 442 c 0
 312 442 348 444 395 447 c 0
 493 453 585 467 608 479 c 0
EndSplineSet
Validated: 1
EndChar

StartChar: C
Encoding: 67 67 2
Width: 825
VWidth: 0
Flags: HW
HStem: 96 108<593.24 748.94> 680 84<553.877 759.76>
LayerCount: 2
Fore
SplineSet
251 81 m 0
 131 123 51 243 51 385 c 0
 51 386 51 387 51 388 c 0
 52 490 92 565 173 614 c 0
 240 655 487 745 584 764 c 0
 612 770 638 772 661 772 c 0
 724 772 768 753 768 720 c 0
 768 694 754 688 674 680 c 0
 577 670 516 652 330 577 c 0
 234 538 217 525 187 466 c 0
 170 433 162 398 162 363 c 0
 162 294 194 228 251 191 c 0
 277 173 329 165 395 165 c 0
 457 165 531 172 609 188 c 0
 662 198 712 206 734 206 c 0
 740 206 744 205 745 204 c 0
 751 200 756 181 756 160 c 0
 756 157 756 153 756 150 c 0
 754 115 743 102 713 96 c 0
 584 70 487 58 408 58 c 0
 346 58 296 66 251 81 c 0
EndSplineSet
Validated: 1
EndChar

StartChar: D
Encoding: 68 68 3
Width: 919
VWidth: 0
Flags: HW
LayerCount: 2
Fore
SplineSet
146 65 m 0
 114 70 84 88 68 112 c 0
 56 130 50 144 50 177 c 0
 50 210 56 261 68 355 c 0
 81 462 92 581 92 626 c 0
 92 628 92 630 92 632 c 0
 92 637 92 642 92 647 c 0
 92 682 95 714 100 722 c 0
 112 741 230 753 350 753 c 0
 429 753 508 748 560 737 c 0
 719 704 765 685 809 634 c 0
 846 592 861 542 861 458 c 0
 861 432 860 403 857 369 c 0
 844 210 803 165 606 89 c 0
 565 73 387 60 257 60 c 0
 211 60 172 61 146 65 c 0
515 167 m 0
 709 213 766 276 766 447 c 0
 766 522 759 542 726 573 c 0
 677 619 526 653 380 653 c 0
 378 653 376 653 374 653 c 0
 203 651 181 643 177 571 c 0
 175 538 166 435 158 344 c 0
 152 273 148 210 148 182 c 0
 148 174 148 169 149 168 c 0
 155 158 228 153 309 153 c 0
 388 153 475 158 515 167 c 0
EndSplineSet
Validated: 1
EndChar

StartChar: E
Encoding: 69 69 4
Width: 894
VWidth: 0
Flags: HW
HStem: 52 101<154.962 695.638> 66 93<515.498 767> 659 105<172 296>
VStem: 83 89<470.732 659>
LayerCount: 2
Fore
SplineSet
82 62 m 0xb0
 63 86 54 123 54 180 c 0
 54 212 57 250 63 295 c 0
 72 365 81 499 83 593 c 2
 86 764 l 1
 296 761 l 2
 411 759 577 757 664 757 c 2
 823 756 l 1
 823 716 l 2
 823 696 827 686 834 686 c 0
 836 686 839 686 841 688 c 0
 852 695 855 690 851 677 c 0
 846 662 799 657 618 657 c 0
 586 657 549 657 508 657 c 2
 172 659 l 1
 172 569 l 2
 172 519 180 474 189 468 c 0
 198 462 264 454 335 450 c 0
 454 443 465 439 471 406 c 0
 472 399 473 393 473 387 c 0
 473 353 450 335 408 335 c 0
 396 335 384 336 369 339 c 0
 333 346 274 352 239 352 c 2
 175 353 l 1
 158 257 l 2
 151 214 146 177 146 162 c 0
 146 158 146 156 147 155 c 0
 149 153 175 152 213 152 c 0
 234 152 258 152 283 153 c 0xb0
 354 155 492 157 590 158 c 2
 767 159 l 1
 779 115 l 2
 782 104 783 95 783 88 c 0
 783 76 779 68 772 66 c 0x70
 762 63 606 57 425 52 c 0
 339 50 273 49 223 49 c 0
 128 49 89 53 82 62 c 0xb0
EndSplineSet
Validated: 1
EndChar

StartChar: F
Encoding: 70 70 5
Width: 792
VWidth: 0
Flags: HW
HStem: 322 98<165.447 394.375> 645 92<384.08 739.908>
VStem: 65 91<66.8114 314.648>
LayerCount: 2
Fore
SplineSet
65 74 m 0
 63 79 62 97 62 124 c 0
 62 166 64 229 68 296 c 0
 75 416 79 508 79 576 c 0
 79 624 77 660 73 685 c 0
 72 689 72 692 72 695 c 0
 72 715 84 728 112 745 c 0
 133 757 144 763 153 763 c 0
 163 763 172 756 189 741 c 0
 210 723 224 717 259 717 c 0
 275 717 295 718 322 720 c 0
 376 725 492 732 578 737 c 0
 617 739 647 740 671 740 c 0
 730 740 748 732 748 707 c 0
 748 698 746 688 743 675 c 0
 736 650 723 647 609 645 c 0
 539 644 452 636 416 628 c 0
 387 622 339 617 297 617 c 0
 287 617 276 617 267 618 c 2
 185 623 l 1
 179 552 l 2
 176 513 170 466 166 448 c 0
 165 441 163 436 163 432 c 0
 163 422 171 418 198 418 c 0
 213 418 233 419 261 420 c 0
 280 421 297 421 311 421 c 0
 384 421 400 409 400 369 c 0
 400 333 380 321 299 321 c 0
 289 321 278 322 265 322 c 0
 259 322 253 322 247 322 c 0
 207 322 173 319 165 315 c 0
 157 310 154 290 154 255 c 0
 154 239 154 219 156 197 c 0
 158 170 159 149 159 133 c 0
 159 93 153 80 137 69 c 0
 121 57 107 52 95 52 c 0
 81 52 71 59 65 74 c 0
EndSplineSet
Validated: 1
EndChar

StartChar: G
Encoding: 71 71 6
Width: 911
VWidth: 0
Flags: HW
HStem: 59 108<333.953 663.199> 687 88<605.423 861.801>
LayerCount: 2
Fore
SplineSet
360 52 m 0
 334 56 269 82 214 111 c 0
 106 168 50 239 50 322 c 0
 50 330 51 339 52 347 c 0
 56 379 62 422 64 443 c 0
 70 497 174 615 249 654 c 0
 370 717 595 774 726 775 c 0
 732 775 737 775 742 775 c 0
 849 775 870 765 870 721 c 0
 870 697 845 685 797 685 c 0
 785 685 771 685 756 687 c 0
 754 687 752 687 749 687 c 0
 702 687 543 656 514 641 c 0
 500 633 438 610 377 590 c 0
 242 545 179 481 163 375 c 0
 160 358 159 343 159 329 c 0
 159 268 186 236 257 200 c 0
 308 174 343 167 445 167 c 0
 458 167 472 167 487 167 c 0
 576 168 655 175 661 182 c 0
 671 193 678 244 678 291 c 0
 678 301 678 311 677 320 c 0
 675 341 665 346 621 346 c 0
 614 346 605 346 596 346 c 0
 589 346 582 346 576 346 c 0
 540 346 507 350 499 355 c 0
 487 363 481 377 481 392 c 0
 481 412 491 434 511 445 c 0
 531 455 589 461 646 461 c 0
 687 461 726 458 750 452 c 0
 780 444 796 406 796 343 c 0
 796 321 794 295 790 267 c 0
 788 253 787 237 787 221 c 0
 787 192 790 164 796 148 c 0
 801 135 803 124 803 114 c 0
 803 72 754 59 624 59 c 0
 620 59 616 59 612 59 c 0
 602 59 591 59 581 59 c 0
 514 59 455 56 439 53 c 0
 429 51 413 49 397 49 c 0
 384 49 371 50 360 52 c 0
EndSplineSet
Validated: 1
EndChar

StartChar: H
Encoding: 72 72 7
Width: 818
VWidth: 0
Flags: HW
HStem: 390 108<280.625 569.628>
VStem: 74 78<260.359 376.718 484.164 698.309> 622 90<114.384 377.922>
LayerCount: 2
Fore
SplineSet
65 71 m 0
 60 80 58 93 58 113 c 0
 58 135 61 165 66 203 c 0
 72 247 76 323 76 405 c 0
 76 439 75 474 74 508 c 0
 72 555 71 592 71 621 c 0
 71 688 76 714 85 722 c 0
 90 726 95 728 100 728 c 0
 127 728 148 665 154 563 c 0
 156 522 160 487 163 484 c 0
 168 479 199 477 240 477 c 0
 306 477 396 483 429 492 c 0
 450 498 481 501 511 501 c 0
 528 501 544 500 558 498 c 2
 628 490 l 1
 653 596 l 2
 680 711 697 762 717 762 c 0
 728 762 739 747 752 720 c 0
 758 709 761 699 761 685 c 0
 761 664 753 634 737 581 c 2
 704 477 l 1
 738 464 l 2
 760 456 770 441 770 426 c 0
 770 408 754 389 725 386 c 0
 702 384 693 380 693 370 c 0
 693 367 694 363 696 359 c 0
 701 347 708 281 712 213 c 0
 714 179 715 154 715 136 c 0
 715 95 710 86 695 80 c 0
 688 78 682 76 677 76 c 0
 648 76 637 116 622 238 c 0
 613 315 600 386 594 396 c 0
 589 404 577 409 551 409 c 0
 537 409 520 407 497 405 c 0
 450 400 357 393 291 390 c 0
 225 387 167 382 162 377 c 0
 157 372 153 302 152 222 c 0
 151 142 146 70 141 61 c 0
 135 50 123 45 110 45 c 0
 93 45 74 54 65 71 c 0
EndSplineSet
Validated: 1
EndChar

StartChar: I
Encoding: 73 73 8
Width: 815
VWidth: 0
Flags: HW
HStem: 80 109<426.302 706.542> 82 90<53.3352 329.931> 651 105<133.079 375> 661 93<495.438 759>
VStem: 330 96<193.159 410.943>
LayerCount: 2
Fore
SplineSet
334 56 m 0x98
 325 72 286 79 187 82 c 0
 53 86 53 87 48 128 c 0
 47 136 46 143 46 148 c 0
 46 171 64 172 180 172 c 0
 193 172 206 172 221 172 c 2
 330 173 l 1
 330 235 l 2
 330 269 341 350 353 416 c 0
 365 482 375 561 375 592 c 2
 375 649 l 1
 274 651 l 2
 63 655 68 654 66 689 c 0
 66 694 66 698 66 702 c 0
 66 751 89 756 318 756 c 0
 345 756 374 756 407 756 c 0x68
 583 756 735 754 744 754 c 0
 761 753 772 733 772 713 c 0
 772 703 769 692 763 684 c 0
 754 673 752 663 759 661 c 0
 760 661 l 0
 760 659 700 654 622 649 c 2
 472 641 l 1
 463 551 l 2
 458 502 445 409 435 344 c 0
 428 298 424 253 424 227 c 0
 424 217 425 209 426 206 c 0
 431 193 456 189 521 189 c 0
 533 189 547 189 562 189 c 0
 576 189 589 189 601 189 c 0
 704 189 719 176 719 112 c 0
 719 86 715 80 683 80 c 0
 677 80 670 80 663 80 c 0
 630 82 599 82 572 82 c 0
 484 82 431 74 414 57 c 0
 399 42 383 35 369 35 c 0
 355 35 342 42 334 56 c 0x98
EndSplineSet
Validated: 1
EndChar

StartChar: J
Encoding: 74 74 9
Width: 856
VWidth: 0
Flags: HW
LayerCount: 2
Fore
SplineSet
291 52 m 0
 196 78 168 100 101 192 c 0
 66 241 50 304 50 355 c 0
 50 405 65 443 94 443 c 0
 104 443 116 438 130 427 c 0
 144 415 156 387 156 364 c 0
 156 341 171 292 190 255 c 0
 226 184 302 147 406 147 c 0
 423 147 440 148 458 150 c 0
 569 162 597 202 633 393 c 0
 648 474 668 554 677 571 c 0
 689 593 696 608 696 620 c 0
 696 649 654 653 538 653 c 0
 398 653 380 657 356 692 c 0
 345 708 340 720 340 730 c 0
 340 737 342 742 347 747 c 0
 357 757 458 766 572 768 c 0
 601 768 627 769 650 769 c 0
 776 769 813 758 813 706 c 0
 813 687 808 663 801 631 c 0
 790 581 777 502 771 454 c 0
 746 259 679 104 603 67 c 0
 565 48 492 38 421 38 c 0
 373 38 326 42 291 52 c 0
EndSplineSet
Validated: 1
EndChar

StartChar: K
Encoding: 75 75 10
Width: 939
VWidth: 0
Flags: HW
LayerCount: 2
Fore
SplineSet
64 46 m 0
 57 53 53 87 53 137 c 0
 53 201 59 291 70 386 c 0
 79 466 93 586 101 651 c 0
 108 716 119 774 124 779 c 0
 126 781 129 781 134 781 c 0
 144 781 160 778 176 770 c 0
 200 759 211 754 211 724 c 0
 211 700 204 659 190 585 c 0
 190 583 189 580 189 578 c 0
 189 564 198 556 214 556 c 0
 254 556 506 645 589 688 c 0
 663 727 764 752 827 752 c 0
 850 752 867 749 877 742 c 0
 891 732 897 724 897 715 c 0
 897 709 894 701 888 692 c 0
 878 676 859 662 847 662 c 0
 811 662 700 620 646 588 c 0
 619 572 537 539 463 515 c 0
 389 491 329 466 329 460 c 0
 329 448 511 330 657 249 c 0
 744 200 773 179 773 150 c 0
 773 142 770 133 766 122 c 0
 758 100 746 88 726 88 c 0
 698 88 654 111 580 160 c 0
 364 303 192 410 179 410 c 0
 172 410 166 357 165 292 c 0
 164 116 149 46 109 40 c 0
 104 39 99 39 94 39 c 0
 81 39 68 42 64 46 c 0
EndSplineSet
Validated: 1
EndChar

StartChar: L
Encoding: 76 76 11
Width: 782
VWidth: 0
Flags: HW
HStem: 54 110<154.028 517.771>
LayerCount: 2
Fore
SplineSet
54 59 m 0
 50 64 48 79 48 100 c 0
 48 159 63 271 88 394 c 0
 100 454 117 633 119 726 c 0
 120 748 139 761 160 761 c 0
 176 761 193 754 203 739 c 0
 211 727 216 701 216 661 c 0
 216 573 196 417 157 205 c 2
 150 166 l 1
 343 164 l 2
 449 163 571 159 614 154 c 0
 657 149 699 145 707 144 c 0
 715 143 712 133 702 121 c 0
 696 114 693 108 693 103 c 0
 693 96 699 90 712 82 c 0
 725 75 730 69 730 63 c 0
 730 58 727 53 721 47 c 0
 714 40 702 36 678 36 c 0
 653 36 615 40 556 48 c 0
 496 56 440 60 379 60 c 0
 336 60 290 58 240 54 c 0
 183 49 143 47 114 47 c 0
 78 47 61 51 54 59 c 0
EndSplineSet
Validated: 1
EndChar

StartChar: M
Encoding: 77 77 12
Width: 912
VWidth: 0
UnlinkRmOvrlpSave: 1
Flags: W
HStem: 39 21G<748 758> 738 20G<149 209 805.5 828.5>
VStem: 90 167<568.777 704.433> 691 112<74.0001 417.808> 738 134<679.701 742.29>
LayerCount: 2
Fore
SplineSet
719 64 m 0xf0
 705 81 695 146 691 252 c 0xf0
 688 341 684 415 681 418 c 1
 672 418 490 179 467 138 c 0
 460 126 447 120 433 120 c 0
 414 120 393 131 384 150 c 0
 378 163 351 220 326 276 c 0
 280 380 216 474 194 474 c 0
 191 474 188 472 187 468 c 0
 183 456 172 378 161 294 c 0
 142 144 124 89 90 66 c 0
 84 62 78 60 73 60 c 0
 57 60 48 81 48 120 c 0
 48 144 51 174 58 209 c 0
 69 269 84 407 90 515 c 0
 102 724 115 758 183 758 c 0
 235 758 257 728 257 657 c 0
 257 610 272 570 318 503 c 0
 352 453 392 389 407 361 c 0
 422 333 440 310 447 310 c 0
 463 310 711 655 738 714 c 0
 754 747 790 768 821 768 c 0
 836 768 850 763 860 753 c 0
 868 745 872 738 872 728 c 0xe8
 872 713 863 692 841 652 c 0
 808 590 801 572 801 441 c 0
 801 411 801 375 802 331 c 0
 803 298 803 269 803 243 c 0
 803 127 797 78 785 63 c 0
 772 47 763 39 753 39 c 0
 743 39 733 47 719 64 c 0xf0
EndSplineSet
EndChar

StartChar: N
Encoding: 78 78 13
Width: 757
VWidth: 0
Flags: HW
VStem: 75 88<203.677 568.9>
LayerCount: 2
Fore
SplineSet
75 66 m 0
 59 78 53 95 53 131 c 0
 53 137 53 142 53 149 c 0
 54 184 59 218 63 225 c 0
 67 232 72 339 75 462 c 0
 79 658 83 691 106 721 c 0
 120 740 142 759 155 761 c 0
 158 762 160 762 163 762 c 0
 191 762 217 736 217 704 c 0
 217 688 241 647 271 614 c 0
 301 581 361 509 404 453 c 0
 488 346 557 275 580 275 c 0
 583 275 586 277 587 280 c 0
 590 290 599 379 606 479 c 0
 619 662 627 711 642 736 c 0
 648 744 658 749 668 749 c 0
 678 749 689 744 695 736 c 0
 697 734 697 720 697 697 c 0
 697 650 694 567 688 476 c 0
 680 351 674 229 674 192 c 0
 674 189 674 187 674 185 c 0
 674 179 674 173 674 168 c 0
 674 115 661 88 635 88 c 0
 612 88 460 247 311 425 c 0
 240 510 180 574 170 574 c 0
 166 574 163 489 163 384 c 0
 163 238 159 179 141 131 c 0
 120 75 111 55 97 55 c 0
 91 55 84 59 75 66 c 0
EndSplineSet
Validated: 1
EndChar

StartChar: O
Encoding: 79 79 14
Width: 863
VWidth: 0
Flags: HW
HStem: 752 20G<458 599>
LayerCount: 2
Fore
SplineSet
252 73 m 0
 120 127 49 223 49 335 c 0
 49 392 68 454 106 516 c 0
 191 655 385 772 531 772 c 0
 667 772 791 617 805 429 c 0
 806 414 807 401 807 390 c 0
 807 347 797 324 764 270 c 0
 676 127 572 64 400 50 c 0
 390 49 381 49 371 49 c 0
 330 49 293 56 252 73 c 0
481 164 m 0
 600 190 719 317 719 420 c 0
 719 487 672 593 623 636 c 0
 590 665 574 675 538 675 c 0
 526 675 512 674 494 672 c 0
 364 660 254 591 195 486 c 0
 178 455 159 430 153 430 c 0
 147 430 138 403 133 370 c 0
 131 358 130 346 130 335 c 0
 130 268 167 222 248 184 c 0
 299 160 333 149 375 149 c 0
 404 149 436 154 481 164 c 0
EndSplineSet
Validated: 1
EndChar

StartChar: P
Encoding: 80 80 15
Width: 939
VWidth: 0
Flags: HW
LayerCount: 2
Fore
SplineSet
48 72 m 0
 47 75 46 81 46 89 c 0
 46 119 53 179 65 241 c 0
 80 320 97 462 103 555 c 0
 110 676 120 730 138 745 c 0
 154 758 219 764 356 764 c 0
 366 764 378 764 389 764 c 0
 673 762 825 723 873 642 c 0
 888 616 895 600 895 578 c 0
 895 561 891 540 884 509 c 0
 863 422 825 384 707 333 c 0
 664 314 614 309 483 309 c 0
 461 309 436 309 409 309 c 0
 352 310 309 311 276 311 c 0
 155 311 173 295 165 177 c 0
 163 144 152 101 142 82 c 0
 130 60 107 48 86 48 c 0
 69 48 54 56 48 72 c 0
705 449 m 0
 767 475 799 511 799 545 c 0
 799 572 778 599 735 616 c 0
 682 637 457 656 325 656 c 0
 275 656 239 653 230 647 c 0
 220 640 208 588 203 532 c 2
 194 430 l 1
 252 416 l 2
 273 411 308 409 351 409 c 0
 473 409 652 427 705 449 c 0
EndSplineSet
Validated: 1
EndChar

StartChar: Q
Encoding: 81 81 16
Width: 859
VWidth: 0
Flags: HW
LayerCount: 2
Fore
SplineSet
222 58 m 0
 140 84 120 104 77 204 c 0
 57 249 49 278 49 312 c 0
 49 326 50 341 53 358 c 0
 65 437 116 551 147 569 c 0
 157 575 199 608 239 641 c 0
 279 674 351 715 398 731 c 0
 445 747 483 764 483 770 c 0
 483 784 499 791 520 791 c 0
 537 791 558 786 577 776 c 0
 646 741 743 638 773 571 c 0
 791 529 800 475 800 421 c 0
 800 352 786 284 758 236 c 0
 737 200 728 181 728 168 c 0
 728 159 732 152 741 143 c 0
 750 134 755 127 755 120 c 0
 755 112 748 103 733 87 c 0
 717 70 707 62 692 62 c 0
 681 62 666 66 643 74 c 0
 621 81 602 85 589 85 c 0
 583 85 578 84 576 82 c 0
 560 56 466 40 373 40 c 0
 317 40 262 46 222 58 c 0
510 155 m 0
 543 160 558 165 558 180 c 0
 558 192 548 211 528 244 c 0
 509 275 500 304 500 326 c 0
 500 354 515 371 543 371 c 0
 564 371 586 360 592 347 c 0
 621 286 636 259 652 259 c 0
 663 259 675 273 690 299 c 0
 708 329 717 365 717 403 c 0
 717 451 702 501 675 543 c 0
 614 635 578 674 527 674 c 0
 497 674 461 661 412 637 c 0
 265 566 155 434 155 327 c 0
 155 246 189 189 255 159 c 0
 288 144 316 137 356 137 c 0
 393 137 440 143 510 155 c 0
EndSplineSet
Validated: 1
EndChar

StartChar: R
Encoding: 82 82 17
Width: 891
VWidth: 0
Flags: HW
HStem: 90 116<662.262 772.595> 354 107<373.896 679.411>
LayerCount: 2
Fore
SplineSet
64 66 m 0
 56 76 52 93 52 127 c 0
 52 165 57 223 66 318 c 0
 78 443 89 589 89 643 c 2
 89 741 l 1
 147 753 l 2
 168 757 219 759 281 759 c 0
 432 759 654 748 709 734 c 0
 794 712 825 683 841 611 c 0
 844 595 846 581 846 567 c 0
 846 516 823 474 772 426 c 0
 713 371 653 355 505 354 c 2
 370 354 l 1
 453 319 l 2
 498 300 574 266 621 245 c 0
 668 224 717 206 729 206 c 0
 751 206 824 148 824 130 c 0
 824 125 813 109 799 95 c 0
 787 83 777 77 762 77 c 0
 749 77 731 82 704 90 c 0
 630 112 362 221 256 272 c 0
 225 287 204 295 190 295 c 0
 169 295 164 277 164 237 c 0
 164 212 168 197 176 197 c 0
 177 197 179 197 180 198 c 0
 183 199 185 200 187 200 c 0
 195 200 198 189 198 174 c 0
 198 143 184 94 164 74 c 0
 143 53 124 42 106 42 c 0
 91 42 77 50 64 66 c 0
703 497 m 0
 733 519 748 543 748 564 c 0
 748 584 735 601 708 614 c 0
 677 629 453 642 317 642 c 0
 262 642 221 640 213 635 c 0
 201 628 186 535 186 490 c 0
 186 478 187 469 190 466 c 0
 193 463 299 461 426 461 c 0
 634 462 661 466 703 497 c 0
EndSplineSet
Validated: 1
EndChar

StartChar: S
Encoding: 83 83 18
Width: 913
VWidth: 0
Flags: HW
HStem: 76 100<71.1213 308.476> 303 117<272.146 667.543>
LayerCount: 2
Fore
SplineSet
154 76 m 0
 80 85 43 105 43 136 c 0
 43 141 44 147 46 153 c 0
 54 174 73 182 140 182 c 0
 175 182 223 180 291 176 c 0
 352 172 407 170 454 170 c 0
 619 170 696 194 696 243 c 0
 696 285 660 294 465 303 c 0
 370 307 275 314 256 318 c 0
 201 329 102 438 102 487 c 0
 102 582 212 675 366 711 c 0
 420 724 541 732 644 732 c 0
 693 732 738 730 770 726 c 0
 861 715 870 710 870 672 c 2
 870 631 l 1
 663 629 l 2
 433 626 293 596 246 539 c 0
 228 518 219 503 219 491 c 0
 219 477 231 466 256 450 c 0
 284 432 348 423 491 420 c 0
 650 417 697 411 733 386 c 0
 770 361 790 317 790 269 c 0
 790 243 784 216 773 189 c 0
 731 88 689 73 451 69 c 0
 427 69 402 68 377 68 c 0
 283 68 192 71 154 76 c 0
EndSplineSet
Validated: 1
EndChar

StartChar: T
Encoding: 84 84 19
Width: 921
VWidth: 0
Flags: HW
LayerCount: 2
Fore
SplineSet
387 170 m 0
 393 245 403 340 408 383 c 0
 413 426 418 465 418 470 c 0
 418 475 418 516 417 561 c 2
 415 643 l 1
 237 648 l 2
 79 652 59 657 53 686 c 0
 53 689 52 691 52 694 c 0
 52 709 59 725 70 732 c 0
 86 742 305 747 510 747 c 0
 695 747 868 743 874 734 c 0
 876 730 877 724 877 716 c 0
 877 706 876 695 873 684 c 0
 865 652 850 649 731 648 c 0
 658 647 581 646 561 645 c 0
 527 644 524 632 514 440 c 0
 496 92 485 52 409 39 c 0
 405 38 402 38 399 38 c 0
 386 38 382 46 382 78 c 0
 382 98 384 127 387 170 c 0
EndSplineSet
Validated: 1
EndChar

StartChar: U
Encoding: 85 85 20
Width: 909
VWidth: 0
Flags: HW
VStem: 64 100<338.007 712.741>
LayerCount: 2
Fore
SplineSet
203 82 m 0
 125 146 77 285 64 483 c 0
 61 526 60 561 60 591 c 0
 60 692 77 726 120 726 c 0
 148 726 153 704 164 529 c 0
 174 365 183 317 221 243 c 0
 256 174 280 148 328 148 c 0
 349 148 375 153 408 162 c 0
 558 202 690 372 747 598 c 0
 772 697 795 745 818 745 c 0
 829 745 840 735 851 713 c 0
 861 694 866 680 866 662 c 0
 866 642 860 616 847 573 c 0
 795 400 689 222 597 152 c 0
 503 81 405 43 323 43 c 0
 276 43 235 56 203 82 c 0
EndSplineSet
Validated: 1
EndChar

StartChar: V
Encoding: 86 86 21
Width: 731
VWidth: 0
Flags: HW
HStem: 51 21G<307 328>
LayerCount: 2
Fore
SplineSet
274 73 m 0
 264 85 244 144 229 205 c 0
 214 266 171 382 134 462 c 0
 76 589 52 652 52 690 c 0
 52 706 57 718 65 728 c 0
 74 739 83 744 92 744 c 0
 124 744 163 678 232 519 c 0
 280 408 323 303 328 287 c 0
 334 267 347 257 357 257 c 0
 366 257 373 265 373 282 c 0
 373 296 380 308 387 308 c 0
 394 308 415 344 433 389 c 0
 504 565 608 745 643 750 c 0
 646 750 649 751 652 751 c 0
 676 751 688 733 688 707 c 0
 688 683 678 652 657 619 c 0
 635 585 586 491 548 411 c 0
 466 239 343 51 313 51 c 0
 301 51 284 61 274 73 c 0
EndSplineSet
Validated: 1
EndChar

StartChar: W
Encoding: 87 87 22
Width: 820
VWidth: 0
Flags: HW
HStem: 530 20G<311 334>
VStem: 66 104<403 630> 255 141<408 499>
LayerCount: 2
Fore
SplineSet
115 53 m 0
 91 72 74 261 66 608 c 0
 65 628 65 644 65 657 c 0
 65 715 72 722 95 722 c 0
 130 722 138 699 170 502 c 0
 181 435 196 374 202 367 c 0
 202 366 203 366 204 366 c 0
 212 366 234 403 255 453 c 0
 278 507 306 551 316 551 c 0
 352 551 396 516 396 489 c 0
 396 450 449 307 464 307 c 0
 471 307 501 360 530 425 c 0
 654 697 696 770 734 775 c 0
 739 776 743 776 747 776 c 0
 769 776 780 766 780 744 c 0
 780 718 764 674 732 611 c 0
 631 409 545 219 535 177 c 0
 530 155 511 118 494 96 c 0
 480 77 466 67 453 67 c 0
 426 67 400 111 367 207 c 0
 344 271 321 323 316 323 c 0
 311 323 279 261 244 186 c 0
 195 80 170 40 144 40 c 0
 135 40 125 45 115 53 c 0
EndSplineSet
Validated: 1
EndChar

StartChar: X
Encoding: 88 88 23
Width: 799
VWidth: 0
Flags: HW
HStem: 751 20G<739 747>
LayerCount: 2
Fore
SplineSet
653 49 m 0
 634 56 615 76 610 93 c 0
 605 110 583 135 562 149 c 0
 541 163 502 205 475 244 c 0
 448 283 416 315 404 315 c 0
 392 315 323 259 252 190 c 0
 162 102 117 67 87 67 c 0
 74 67 63 74 53 86 c 0
 46 94 43 106 43 118 c 0
 43 138 53 158 68 158 c 0
 87 158 318 385 318 404 c 0
 318 412 297 443 272 473 c 0
 144 624 117 663 117 693 c 0
 117 695 117 697 117 699 c 0
 120 724 136 737 156 737 c 0
 177 737 204 723 226 695 c 0
 247 669 294 610 333 562 c 0
 372 514 405 484 419 484 c 0
 420 484 421 485 422 485 c 0
 432 491 505 558 584 634 c 0
 663 710 735 771 743 771 c 0
 751 771 758 749 758 722 c 0
 758 681 734 649 624 536 c 2
 491 400 l 1
 549 330 l 2
 581 292 620 249 635 235 c 0
 650 221 670 194 679 173 c 0
 688 152 704 122 715 107 c 0
 721 99 724 90 724 82 c 0
 724 61 704 44 678 44 c 0
 670 44 662 46 653 49 c 0
EndSplineSet
Validated: 1
EndChar

StartChar: Y
Encoding: 89 89 24
Width: 757
VWidth: 0
Flags: HW
VStem: 238 110<81.4154 415.64>
LayerCount: 2
Fore
SplineSet
244 90 m 0
 240 107 238 148 238 190 c 0
 238 198 238 207 238 215 c 0
 239 265 240 304 240 337 c 0
 240 465 227 483 166 541 c 0
 94 610 52 675 52 714 c 0
 52 724 55 732 60 738 c 0
 72 752 83 759 95 759 c 0
 113 759 134 743 160 709 c 0
 182 680 229 625 265 588 c 2
 331 520 l 1
 408 586 l 2
 450 622 506 671 532 694 c 0
 601 756 639 781 667 781 c 0
 675 781 682 779 689 775 c 0
 705 766 718 751 718 739 c 0
 718 716 589 591 484 512 c 0
 352 413 348 414 348 296 c 0
 348 288 348 279 348 269 c 0
 348 196 342 118 333 95 c 0
 323 67 302 53 283 53 c 0
 266 53 250 65 244 90 c 0
EndSplineSet
Validated: 1
EndChar

StartChar: Z
Encoding: 90 90 25
Width: 905
VWidth: 0
Flags: HW
HStem: 78 110<295.562 796.887> 626 101<140.436 475.978>
LayerCount: 2
Fore
SplineSet
80 71 m 0
 60 80 43 100 43 117 c 0
 43 147 187 262 455 446 c 0
 524 493 605 554 636 580 c 2
 693 627 l 1
 410 626 l 2
 388 626 369 626 350 626 c 0
 158 626 121 631 99 653 c 0
 86 666 80 674 80 682 c 0
 80 689 85 697 94 708 c 0
 107 724 122 730 156 730 c 0
 170 730 187 729 208 727 c 0
 221 726 241 725 266 725 c 0
 337 725 446 730 547 739 c 0
 643 747 711 752 759 752 c 0
 837 752 861 740 861 710 c 0
 861 704 860 696 858 688 c 0
 852 663 839 633 829 621 c 0
 802 589 571 403 474 336 c 0
 428 304 368 258 341 233 c 2
 292 188 l 1
 535 191 l 2
 569 191 599 192 625 192 c 0
 787 192 819 183 819 149 c 0
 818 87 792 80 543 78 c 0
 409 77 258 72 208 66 c 0
 189 64 168 63 149 63 c 0
 119 63 92 65 80 71 c 0
EndSplineSet
Validated: 1
EndChar

StartChar: e
Encoding: 101 101 26
Width: 532
VWidth: 0
Flags: HW
HStem: 56 110<199.449 378.503>
LayerCount: 2
Fore
SplineSet
106 112 m 0
 61 157 49 170 49 219 c 0
 49 237 51 259 53 290 c 0
 62 410 110 513 159 513 c 0
 171 513 191 525 203 539 c 0
 218 557 249 565 282 565 c 0
 341 565 407 540 407 504 c 0
 407 490 419 474 432 469 c 0
 445 464 464 438 473 412 c 0
 477 401 479 390 479 379 c 0
 479 291 367 202 244 202 c 0
 242 202 241 202 239 202 c 0
 236 202 233 202 230 202 c 0
 206 202 195 199 195 193 c 0
 195 191 196 189 199 186 c 0
 208 177 254 167 299 166 c 0
 379 164 382 162 382 112 c 0
 382 61 381 61 274 56 c 0
 253 55 235 54 221 54 c 0
 166 54 153 65 106 112 c 0
337 340 m 0
 358 356 368 365 368 376 c 0
 368 386 361 397 347 418 c 0
 328 447 310 460 285 460 c 0
 282 460 278 459 274 459 c 0
 228 454 172 389 172 348 c 0
 172 343 172 339 174 335 c 0
 181 317 207 309 237 309 c 0
 271 309 310 319 337 340 c 0
EndSplineSet
Validated: 1
EndChar

StartChar: t
Encoding: 116 116 28
Width: 491
VWidth: 0
Flags: HW
HStem: 412 118<180.267 390.795>
LayerCount: 2
Fore
SplineSet
174 52 m 0
 128 72 113 92 92 169 c 0
 78 220 63 320 59 391 c 0
 57 425 56 450 56 469 c 0
 56 518 64 528 93 547 c 0
 112 559 126 565 140 565 c 0
 151 565 161 562 174 555 c 0
 195 544 252 533 299 530 c 0
 372 526 413 505 413 474 c 0
 413 463 408 451 398 439 c 0
 382 419 345 412 272 412 c 0
 174 412 169 410 169 369 c 0
 169 345 178 286 188 237 c 0
 204 161 213 149 248 149 c 0
 274 149 304 168 327 201 c 0
 352 237 365 252 380 252 c 0
 389 252 398 247 412 238 c 0
 423 231 428 219 428 203 c 0
 428 168 402 117 359 76 c 0
 325 44 296 29 262 29 c 0
 237 29 209 37 174 52 c 0
EndSplineSet
Validated: 1
EndChar

StartChar: z
Encoding: 122 122 29
Width: 638
VWidth: 0
Flags: HW
LayerCount: 2
Fore
SplineSet
45 83 m 0
 44 88 43 92 43 98 c 0
 43 143 98 207 191 269 c 0
 288 334 382 413 382 431 c 0
 382 437 330 441 262 441 c 0
 254 441 246 441 238 441 c 0
 218 441 200 440 185 440 c 0
 103 440 91 446 87 468 c 0
 86 472 86 475 86 479 c 0
 86 492 90 506 96 512 c 0
 111 527 381 566 451 566 c 0
 458 566 463 566 466 565 c 0
 476 562 504 555 528 550 c 0
 559 543 568 536 568 510 c 0
 568 506 567 501 567 496 c 0
 564 464 535 426 462 359 c 0
 406 308 338 246 312 221 c 2
 265 176 l 1
 312 185 l 2
 348 192 439 198 505 198 c 0
 520 198 533 198 544 197 c 0
 561 196 571 181 571 168 c 0
 571 158 565 148 551 148 c 0
 539 148 543 139 560 126 c 0
 572 117 579 108 579 102 c 0
 579 100 578 98 576 97 c 0
 569 93 489 84 398 78 c 0
 307 72 193 63 144 59 c 0
 120 57 102 56 89 56 c 0
 58 56 51 63 45 83 c 0
EndSplineSet
Validated: 1
EndChar

StartChar: l
Encoding: 108 108 30
Width: 285
VWidth: 0
Flags: HW
LayerCount: 2
Fore
SplineSet
62 74 m 0
 55 93 51 118 51 155 c 0
 51 231 67 358 102 580 c 0
 125 728 147 787 186 787 c 0
 198 787 211 782 226 772 c 0
 238 765 243 757 243 742 c 0
 243 729 239 710 230 681 c 0
 218 640 203 539 197 457 c 0
 169 47 167 34 123 28 c 0
 119 27 115 27 112 27 c 0
 88 27 75 40 62 74 c 0
EndSplineSet
Validated: 1
EndChar

StartChar: a
Encoding: 97 97 31
Width: 634
VWidth: 0
Flags: HW
LayerCount: 2
Fore
SplineSet
123 50 m 0
 68 82 49 119 48 193 c 0
 48 195 48 197 48 199 c 0
 48 295 71 340 160 426 c 0
 259 522 317 548 459 559 c 0
 482 561 502 562 518 562 c 0
 565 562 582 551 582 508 c 0
 582 479 574 437 562 374 c 0
 547 297 534 213 534 186 c 0
 534 159 525 128 514 117 c 0
 501 104 484 97 469 97 c 0
 451 97 434 107 427 124 c 0
 424 132 420 136 414 136 c 0
 403 136 385 123 350 91 c 0
 304 50 253 28 204 28 c 0
 176 28 148 35 123 50 c 0
280 155 m 0
 326 179 443 354 461 428 c 0
 462 433 463 438 463 442 c 0
 463 461 450 469 430 469 c 0
 376 469 268 410 199 328 c 0
 162 284 145 247 145 212 c 0
 145 197 148 183 154 168 c 0
 165 144 182 132 207 132 c 0
 227 132 251 140 280 155 c 0
EndSplineSet
Validated: 1
EndChar

StartChar: b
Encoding: 98 98 32
Width: 595
VWidth: 0
Flags: HW
HStem: 234 330<292 386>
VStem: 83 92<573.433 770.238>
LayerCount: 2
Fore
SplineSet
61 56 m 0
 58 64 56 79 56 111 c 0
 56 179 64 322 83 636 c 0
 90 749 102 791 133 791 c 0
 139 791 145 790 152 787 c 0
 168 781 175 745 175 672 c 2
 175 565 l 1
 265 564 l 2
 394 563 409 558 468 509 c 0
 513 471 535 406 535 341 c 0
 535 263 504 185 444 154 c 0
 412 137 380 129 348 129 c 0
 315 129 281 138 246 156 c 0
 217 171 201 180 191 180 c 0
 178 180 176 165 169 129 c 0
 157 67 122 26 94 26 c 0
 81 26 69 36 61 56 c 0
416 278 m 0
 426 305 431 330 431 352 c 0
 431 420 383 460 294 460 c 0
 285 460 275 460 265 459 c 0
 253 458 235 436 225 410 c 0
 219 395 216 382 216 370 c 0
 216 352 223 335 237 311 c 0
 275 246 292 234 351 234 c 0
 386 234 404 245 416 278 c 0
EndSplineSet
Validated: 1
EndChar

StartChar: c
Encoding: 99 99 33
Width: 513
VWidth: 0
Flags: HW
HStem: 50 120<209.543 420.979>
LayerCount: 2
Fore
SplineSet
227 66 m 0
 214 72 199 75 189 75 c 0
 185 75 182 74 180 73 c 0
 179 72 178 72 176 72 c 0
 148 72 62 175 51 225 c 0
 49 234 48 243 48 254 c 0
 48 328 91 444 139 489 c 0
 182 530 285 559 358 559 c 0
 386 559 410 554 425 545 c 0
 450 529 464 500 464 479 c 0
 464 464 457 453 442 451 c 0
 439 451 433 451 426 451 c 0
 407 451 377 452 348 453 c 0
 345 453 341 453 338 453 c 0
 241 453 165 386 165 297 c 0
 165 207 208 170 311 170 c 0
 315 170 319 170 323 170 c 0
 330 170 338 170 344 170 c 0
 399 170 416 162 430 136 c 0
 437 124 440 113 440 103 c 0
 440 70 404 50 339 50 c 0
 338 50 336 50 335 50 c 0
 295 51 246 58 227 66 c 0
EndSplineSet
Validated: 1
EndChar

StartChar: d
Encoding: 100 100 34
Width: 600
VWidth: 0
Flags: HW
VStem: 48 112<170.356 329.268>
LayerCount: 2
Fore
SplineSet
166 63 m 0
 82 83 48 135 48 242 c 0
 48 327 75 383 155 472 c 0
 214 538 232 549 292 549 c 0
 295 549 298 549 301 549 c 0
 343 548 384 543 394 537 c 0
 398 535 401 533 404 533 c 0
 421 533 429 571 438 681 c 0
 443 741 447 792 448 795 c 0
 448 797 454 797 463 797 c 0
 472 797 484 797 498 795 c 0
 535 790 545 783 545 753 c 0
 545 750 545 747 545 744 c 0
 543 719 536 605 530 491 c 0
 519 289 510 163 505 117 c 0
 504 104 477 94 442 94 c 0
 408 94 352 82 316 67 c 0
 282 53 252 42 247 42 c 0
 246 42 l 0
 243 43 208 53 166 63 c 0
311 187 m 0
 362 210 409 323 409 391 c 0
 409 414 404 431 392 439 c 0
 373 451 354 456 334 456 c 0
 247 456 160 350 160 219 c 0
 160 172 166 167 213 167 c 0
 242 167 286 176 311 187 c 0
EndSplineSet
Validated: 1
EndChar

StartChar: f
Encoding: 102 102 35
Width: 485
VWidth: 0
Flags: HW
HStem: 435 129<223 391> 678 114<268 418>
LayerCount: 2
Fore
SplineSet
77 45 m 0
 59 63 51 81 51 124 c 0
 51 149 54 183 58 231 c 0
 66 315 75 432 78 491 c 0
 89 692 172 792 330 792 c 0
 399 792 444 765 444 727 c 0
 444 721 443 714 440 707 c 0
 433 688 404 678 356 678 c 0
 309 678 271 665 251 643 c 0
 231 621 221 605 221 592 c 0
 221 573 244 564 291 564 c 0
 374 564 407 546 407 502 c 0
 407 497 407 492 406 486 c 0
 400 446 389 440 301 435 c 0
 192 429 193 430 172 270 c 0
 148 82 137 20 113 20 c 0
 104 20 92 30 77 45 c 0
EndSplineSet
Validated: 1
EndChar

StartChar: g
Encoding: 103 103 36
Width: 614
VWidth: 0
Flags: HW
LayerCount: 2
Fore
SplineSet
120 -161 m 0
 80 -143 59 -116 59 -87 c 0
 59 -68 68 -48 86 -30 c 0
 103 -13 119 -5 133 -5 c 0
 147 -5 157 -13 164 -31 c 0
 171 -49 192 -58 215 -58 c 0
 240 -58 268 -48 287 -27 c 0
 310 -1 322 17 322 31 c 0
 322 50 300 59 254 61 c 0
 133 68 102 85 69 168 c 0
 55 202 49 238 49 274 c 0
 49 365 91 457 166 516 c 0
 198 541 217 551 268 551 c 0
 292 551 323 549 366 545 c 0
 489 535 520 526 546 492 c 0
 561 473 568 461 568 449 c 0
 568 438 562 427 551 410 c 0
 536 388 519 334 513 290 c 0
 477 43 398 -115 289 -161 c 0
 249 -178 226 -186 204 -186 c 0
 181 -186 159 -178 120 -161 c 0
358 238 m 0
 376 264 397 315 404 353 c 0
 407 372 409 386 409 396 c 0
 409 420 398 426 365 434 c 0
 350 438 335 440 321 440 c 0
 262 440 214 407 184 346 c 0
 169 314 161 294 161 275 c 0
 161 260 166 247 174 229 c 0
 189 195 202 185 235 185 c 0
 243 185 251 185 261 186 c 0
 304 190 336 207 358 238 c 0
EndSplineSet
Validated: 1
EndChar

StartChar: h
Encoding: 104 104 37
Width: 578
VWidth: 0
Flags: HW
VStem: 62 147<150.932 340.61> 96 110<554.258 781.644> 383 121<64.6108 412.793>
LayerCount: 2
Fore
SplineSet
64 57 m 0xa0
 55 68 50 85 50 120 c 0
 50 152 54 199 62 269 c 0xa0
 74 371 89 530 96 624 c 0
 107 771 113 795 142 801 c 0
 147 802 151 802 155 802 c 0
 193 802 206 762 206 655 c 2x60
 207 552 l 1
 270 552 l 2
 357 552 449 510 486 454 c 0
 503 428 510 406 510 353 c 0
 510 324 508 286 504 233 c 0
 497 137 485 51 477 43 c 0
 474 40 468 38 461 38 c 0
 451 38 437 41 425 48 c 0
 392 66 388 87 383 242 c 0
 378 411 376 416 332 426 c 0
 325 428 319 428 313 428 c 0
 261 428 229 371 209 249 c 0
 186 110 147 33 105 33 c 0
 91 33 78 41 64 57 c 0xa0
EndSplineSet
Validated: 1
EndChar

StartChar: i
Encoding: 105 105 38
Width: 304
VWidth: 0
Flags: HW
VStem: 47 141<58.9713 242.355>
LayerCount: 2
Fore
SplineSet
47 64 m 0
 45 68 45 75 45 85 c 0
 45 111 50 155 60 197 c 0
 73 254 89 349 94 409 c 0
 102 507 115 545 145 545 c 0
 151 545 158 544 165 541 c 0
 194 530 210 466 210 381 c 0
 210 341 206 298 199 252 c 0
 191 201 186 155 186 132 c 0
 186 124 187 118 188 117 c 0
 189 116 190 114 190 111 c 0
 190 102 184 87 176 72 c 0
 164 48 132 36 103 36 c 0
 78 36 54 45 47 64 c 0
148 724 m 0
 144 736 142 746 142 755 c 0
 142 785 161 803 195 803 c 0
 236 803 265 777 265 742 c 0
 265 736 264 729 262 723 c 0
 256 698 231 685 206 685 c 0
 181 685 156 698 148 724 c 0
EndSplineSet
Validated: 1
EndChar

StartChar: j
Encoding: 106 106 39
Width: 551
VWidth: 0
Flags: HW
VStem: 47 102<191.006 268.674>
LayerCount: 2
Fore
SplineSet
116 78 m 0
 71 115 47 173 47 243 c 0
 47 306 66 338 88 338 c 0
 110 338 136 305 149 241 c 0
 158 199 173 180 192 180 c 0
 230 180 282 258 309 383 c 0
 321 435 330 486 331 494 c 0
 332 517 360 533 386 533 c 0
 397 533 407 531 415 524 c 0
 430 512 436 487 436 454 c 0
 436 336 354 123 274 82 c 0
 242 65 210 57 182 57 c 0
 156 57 133 64 116 78 c 0
404 706 m 0
 396 714 392 726 392 738 c 0
 392 761 405 786 426 797 c 0
 436 802 445 805 453 805 c 0
 464 805 474 800 486 788 c 0
 504 770 512 758 512 747 c 0
 512 737 506 728 493 715 c 0
 480 702 458 695 439 695 c 0
 425 695 412 698 404 706 c 0
EndSplineSet
Validated: 1
EndChar

StartChar: k
Encoding: 107 107 40
Width: 629
VWidth: 0
Flags: HW
LayerCount: 2
Fore
SplineSet
72 56 m 0
 57 71 50 125 50 186 c 0
 50 251 58 323 74 368 c 0
 87 406 103 486 110 545 c 0
 136 773 139 803 171 803 c 0
 176 803 183 802 190 801 c 2
 237 795 l 1
 231 621 l 2
 230 587 229 559 229 536 c 0
 229 472 234 447 246 447 c 0
 258 447 311 471 365 500 c 0
 429 535 466 551 490 551 c 0
 507 551 519 543 531 528 c 0
 536 522 539 515 539 508 c 0
 539 476 489 435 398 393 c 0
 353 372 328 351 328 337 c 0
 328 328 338 322 360 322 c 0
 372 322 427 281 483 231 c 0
 549 173 571 149 571 129 c 0
 571 121 568 114 563 106 c 0
 549 84 533 74 512 74 c 0
 482 74 443 95 390 140 c 0
 315 203 211 268 183 268 c 0
 179 268 176 241 176 202 c 0
 176 188 176 172 177 156 c 0
 179 128 180 107 180 91 c 0
 180 46 171 43 139 39 c 0
 135 39 132 38 128 38 c 0
 106 38 82 46 72 56 c 0
EndSplineSet
Validated: 1
EndChar

StartChar: m
Encoding: 109 109 41
Width: 643
VWidth: 0
Flags: HW
VStem: 51 112<120.082 254.313>
LayerCount: 2
Fore
SplineSet
485 58 m 0
 473 66 468 98 468 167 c 0
 468 178 468 190 468 203 c 0
 468 221 469 237 469 251 c 0
 469 336 462 365 441 365 c 0
 437 365 433 364 428 362 c 0
 411 355 368 279 364 247 c 0
 357 185 315 127 280 127 c 0
 276 127 272 128 269 129 c 0
 256 134 250 143 250 164 c 0
 250 174 251 187 254 205 c 0
 270 302 277 353 277 378 c 0
 277 397 273 402 264 402 c 0
 261 402 259 402 255 401 c 0
 238 398 219 371 208 333 c 0
 198 299 177 230 163 181 c 0
 143 114 130 92 109 92 c 0
 85 92 49 120 49 135 c 0
 49 137 50 138 51 140 c 0
 54 143 61 209 67 286 c 0
 83 504 94 560 120 570 c 0
 123 571 125 571 128 571 c 0
 141 571 158 562 171 546 c 0
 188 525 216 512 244 512 c 0
 269 512 307 500 327 484 c 0
 346 470 364 462 383 462 c 0
 390 462 396 463 403 465 c 0
 412 468 423 469 433 469 c 0
 471 469 512 452 539 425 c 0
 560 404 571 311 571 225 c 0
 571 162 565 102 551 81 c 0
 535 57 525 46 513 46 c 0
 505 46 497 50 485 58 c 0
EndSplineSet
Validated: 1
EndChar

StartChar: n
Encoding: 110 110 42
Width: 712
VWidth: 0
Flags: HW
LayerCount: 2
Fore
SplineSet
554 55 m 0
 529 61 521 82 521 148 c 0
 521 273 487 370 434 394 c 0
 403 408 372 415 345 415 c 0
 296 415 260 394 260 358 c 0
 260 339 251 318 241 312 c 0
 231 306 222 285 222 266 c 0
 222 247 205 194 184 146 c 0
 153 75 136 60 97 60 c 2
 49 60 l 1
 60 204 l 2
 80 475 97 565 144 565 c 0
 157 565 171 558 189 547 c 0
 204 537 226 533 252 533 c 0
 267 533 283 534 300 537 c 0
 316 540 332 541 348 541 c 0
 466 541 564 466 603 342 c 0
 631 253 645 195 645 153 c 0
 645 120 636 98 620 82 c 0
 604 65 580 54 562 54 c 0
 559 54 556 54 554 55 c 0
EndSplineSet
Validated: 1
EndChar

StartChar: o
Encoding: 111 111 43
Width: 623
VWidth: 0
Flags: HW
LayerCount: 2
Fore
SplineSet
138 61 m 0
 75 92 48 152 48 221 c 0
 48 369 172 554 321 554 c 0
 332 554 344 553 355 551 c 0
 468 530 561 408 561 300 c 0
 561 281 558 262 552 244 c 0
 523 163 464 98 392 68 c 0
 353 52 296 43 245 43 c 0
 203 43 163 49 138 61 c 0
375 183 m 0
 423 212 449 262 449 313 c 0
 449 340 442 366 426 390 c 0
 406 422 391 432 353 432 c 0
 344 432 334 431 322 430 c 0
 260 425 241 414 207 364 c 0
 181 325 167 276 167 236 c 0
 167 208 174 184 188 170 c 0
 202 156 227 149 256 149 c 0
 294 149 339 161 375 183 c 0
EndSplineSet
Validated: 1
EndChar

StartChar: p
Encoding: 112 112 44
Width: 564
VWidth: 0
Flags: HW
VStem: 51 102<-172.189 73.125>
LayerCount: 2
Fore
SplineSet
81 -183 m 0
 65 -179 51 -168 51 -157 c 0
 50 -126 49 -88 49 -46 c 0
 49 74 54 214 59 223 c 0
 64 232 73 283 78 337 c 0
 98 554 89 541 212 554 c 0
 233 556 253 557 272 557 c 0
 412 557 485 495 499 366 c 0
 501 352 501 339 501 326 c 0
 501 231 458 172 367 146 c 0
 324 134 285 116 279 107 c 0
 273 98 247 90 221 90 c 0
 179 90 172 82 163 27 c 0
 157 -8 153 -63 153 -97 c 0
 153 -155 133 -185 97 -185 c 0
 92 -185 87 -184 81 -183 c 0
291 209 m 0
 340 228 385 253 392 264 c 0
 401 279 406 299 406 321 c 0
 406 360 392 404 368 426 c 0
 345 448 300 460 264 460 c 0
 239 460 219 455 211 442 c 0
 198 421 178 266 178 208 c 0
 178 197 178 191 180 188 c 0
 185 181 187 176 195 176 c 0
 207 176 231 185 291 209 c 0
EndSplineSet
Validated: 1
EndChar

StartChar: q
Encoding: 113 113 45
Width: 570
VWidth: 0
Flags: HW
LayerCount: 2
Fore
SplineSet
359 -176 m 0
 337 -163 329 -142 329 -98 c 0
 329 -93 329 -88 329 -83 c 0
 330 -59 331 -41 331 -26 c 0
 331 26 321 32 271 32 c 0
 264 32 256 32 247 32 c 0
 245 32 243 32 241 32 c 0
 118 32 48 104 48 214 c 0
 48 255 58 301 78 351 c 0
 100 406 137 464 159 478 c 0
 176 490 202 495 231 495 c 0
 269 495 312 485 345 467 c 0
 351 464 355 462 360 462 c 0
 372 462 382 475 394 504 c 0
 409 539 433 556 455 556 c 0
 475 556 492 542 500 512 c 0
 504 497 506 471 506 439 c 0
 506 339 489 179 466 90 c 0
 452 36 440 -34 439 -66 c 0
 438 -133 422 -196 404 -196 c 0
 396 -196 377 -186 359 -176 c 0
326 154 m 0
 358 163 382 228 382 307 c 0
 382 343 306 389 258 389 c 0
 252 389 246 389 241 387 c 0
 210 377 149 272 149 230 c 0
 149 194 217 134 253 134 c 0
 255 134 258 134 260 135 c 0
 278 140 307 149 326 154 c 0
EndSplineSet
Validated: 1
EndChar

StartChar: r
Encoding: 114 114 46
Width: 694
VWidth: 0
Flags: HW
HStem: 52 21G<100.5 140.5>
LayerCount: 2
Fore
SplineSet
54 83 m 0
 52 88 51 101 51 119 c 0
 51 217 77 468 93 493 c 0
 99 502 123 510 145 510 c 0
 167 510 233 524 291 541 c 0
 339 555 369 562 394 562 c 0
 418 562 438 556 468 543 c 0
 510 525 559 480 589 432 c 0
 622 379 637 352 637 332 c 0
 637 317 628 306 611 292 c 0
 602 285 594 281 586 281 c 0
 573 281 559 291 536 314 c 0
 511 340 476 382 459 409 c 0
 441 437 430 449 409 449 c 0
 397 449 382 445 360 439 c 0
 283 417 203 299 202 208 c 0
 201 113 167 52 114 52 c 0
 87 52 61 66 54 83 c 0
EndSplineSet
Validated: 1
EndChar

StartChar: s
Encoding: 115 115 47
Width: 507
VWidth: 0
Flags: HW
HStem: 66 99<84.605 329.175> 459 106<229.828 398.768>
LayerCount: 2
Fore
SplineSet
185 66 m 0
 81 85 45 96 45 118 c 0
 45 126 49 134 56 145 c 0
 69 165 82 173 127 173 c 0
 153 173 190 170 243 165 c 0
 259 163 272 163 283 163 c 0
 315 163 326 170 330 187 c 0
 330 189 331 191 331 193 c 0
 331 211 311 221 254 229 c 0
 206 236 148 261 115 289 c 0
 78 320 66 337 66 366 c 0
 66 375 67 385 69 398 c 0
 75 432 89 471 101 486 c 0
 137 530 242 565 336 565 c 0
 411 565 425 560 425 530 c 0
 425 485 405 474 303 459 c 0
 229 448 193 418 193 390 c 0
 193 359 235 330 317 330 c 0
 401 330 443 285 443 196 c 0
 443 149 429 115 398 84 c 0
 371 57 360 45 327 45 c 0
 301 45 260 52 185 66 c 0
EndSplineSet
Validated: 1
EndChar

StartChar: u
Encoding: 117 117 48
Width: 663
VWidth: 0
Flags: HW
HStem: 540 20G<541 583>
VStem: 511 80<356 554>
LayerCount: 2
Fore
SplineSet
235 63 m 0
 137 86 77 134 65 198 c 0
 58 233 55 276 55 320 c 0
 55 432 75 548 103 559 c 0
 107 561 111 561 115 561 c 0
 143 561 171 531 171 501 c 0
 171 496 170 491 169 487 c 0
 164 470 159 401 158 334 c 0
 158 330 158 327 158 323 c 0
 158 188 177 160 277 160 c 0
 284 160 291 160 299 160 c 0
 370 162 394 172 424 207 c 0
 465 255 495 347 511 477 c 0
 520 546 528 561 555 561 c 0
 591 561 609 531 609 474 c 0
 609 441 603 399 591 348 c 0
 543 151 507 102 385 67 c 0
 345 55 326 50 306 50 c 0
 288 50 270 54 235 63 c 0
EndSplineSet
Validated: 1
EndChar

StartChar: v
Encoding: 118 118 49
Width: 590
VWidth: 0
Flags: HW
VStem: 56 105<368 497>
LayerCount: 2
Fore
SplineSet
181 111 m 0
 144 161 69 371 56 458 c 0
 53 475 52 489 52 501 c 0
 52 524 57 537 67 546 c 0
 74 552 82 555 89 555 c 0
 116 555 141 510 161 424 c 0
 183 327 237 211 261 211 c 0
 284 211 335 284 369 365 c 0
 416 479 474 549 511 549 c 0
 526 549 538 538 544 514 c 0
 545 510 546 505 546 500 c 0
 546 478 534 452 508 416 c 0
 483 381 449 321 432 282 c 0
 393 192 285 73 242 73 c 0
 241 73 l 0
 223 73 196 91 181 111 c 0
EndSplineSet
Validated: 1
EndChar

StartChar: w
Encoding: 119 119 50
Width: 716
VWidth: 0
Flags: HW
HStem: 545 20G<620.5 634.5>
VStem: 57 87<353.052 497.3>
LayerCount: 2
Fore
SplineSet
357 138 m 0
 327 190 304 219 293 219 c 0
 289 219 286 214 286 205 c 0
 286 198 267 168 243 140 c 0
 218 111 206 99 194 99 c 0
 187 99 181 103 172 109 c 0
 137 135 72 311 57 420 c 0
 54 444 52 462 52 475 c 0
 52 498 58 506 71 511 c 0
 76 513 82 514 87 514 c 0
 118 514 144 481 144 436 c 0
 144 388 184 296 204 296 c 0
 210 296 232 328 253 367 c 0
 278 413 300 436 320 436 c 0
 342 436 360 408 374 351 c 0
 389 288 422 225 438 225 c 0
 440 225 442 225 443 227 c 0
 450 235 468 277 484 320 c 0
 516 408 610 565 631 565 c 0
 638 565 653 547 663 526 c 0
 668 515 670 506 670 496 c 0
 670 473 657 446 625 385 c 0
 595 329 560 253 547 217 c 0
 516 129 464 59 431 59 c 0
 415 59 384 92 357 138 c 0
EndSplineSet
Validated: 1
EndChar

StartChar: x
Encoding: 120 120 51
Width: 589
VWidth: 0
Flags: HW
HStem: 536 20G<134.5 159>
LayerCount: 2
Fore
SplineSet
49 56 m 0
 43 62 40 69 40 77 c 0
 40 99 65 132 125 192 c 0
 172 239 211 288 211 299 c 0
 211 310 192 359 168 407 c 0
 142 457 129 499 129 525 c 0
 129 545 137 556 153 556 c 0
 165 556 188 536 204 512 c 0
 220 488 244 453 258 434 c 2
 283 399 l 1
 337 457 l 2
 397 522 467 562 510 562 c 0
 528 562 541 555 547 540 c 0
 548 538 548 535 548 532 c 0
 548 510 524 477 505 477 c 0
 482 477 397 398 370 353 c 0
 352 324 343 304 343 286 c 0
 343 263 358 243 391 206 c 0
 424 170 441 143 441 129 c 0
 441 122 437 118 428 118 c 0
 421 118 418 106 422 90 c 0
 423 85 424 81 424 77 c 0
 424 67 419 63 411 63 c 0
 385 63 327 109 288 170 c 0
 282 179 278 184 271 184 c 0
 259 184 241 167 197 122 c 0
 147 71 105 45 76 45 c 0
 65 45 56 49 49 56 c 0
EndSplineSet
Validated: 1
EndChar

StartChar: y
Encoding: 121 121 52
Width: 660
VWidth: 0
Flags: HW
HStem: -183 97<148.556 346.234>
LayerCount: 2
Fore
SplineSet
190 -183 m 0
 150 -169 130 -150 126 -124 c 0
 125 -117 124 -112 124 -107 c 0
 124 -89 134 -84 176 -84 c 0
 191 -84 210 -85 235 -86 c 0
 239 -86 243 -86 248 -86 c 0
 283 -86 321 -80 338 -71 c 0
 365 -57 405 38 405 78 c 0
 405 85 404 90 401 93 c 0
 400 94 399 94 396 94 c 0
 384 94 353 85 321 73 c 0
 283 58 249 51 218 51 c 0
 114 51 52 135 51 287 c 0
 51 418 81 515 122 515 c 0
 158 515 181 491 181 462 c 0
 181 453 179 444 174 434 c 0
 163 413 157 368 157 323 c 0
 157 280 162 235 173 207 c 0
 184 178 207 164 239 164 c 0
 266 164 301 174 340 195 c 0
 418 236 468 314 492 429 c 0
 510 519 531 564 552 564 c 0
 564 564 577 549 590 517 c 0
 598 497 602 470 602 437 c 0
 602 363 583 260 547 151 c 0
 525 84 507 17 506 1 c 0
 504 -41 454 -121 406 -157 c 0
 371 -183 322 -197 273 -197 c 0
 245 -197 217 -192 190 -183 c 0
EndSplineSet
Validated: 1
EndChar

StartChar: bar
Encoding: 124 124 53
Width: 379
VWidth: 0
Flags: HW
VStem: 146 126<555.018 673.885>
LayerCount: 2
Fore
SplineSet
107 93 m 0
 100 111 96 135 96 171 c 0
 96 243 112 362 146 569 c 0
 169 708 191 764 229 764 c 0
 240 764 253 759 268 750 c 0
 279 743 285 736 285 722 c 0
 285 710 281 692 272 664 c 0
 260 625 246 530 240 453 c 0
 213 68 211 56 167 50 c 0
 163 50 159 50 156 50 c 0
 133 50 120 61 107 93 c 0
EndSplineSet
Validated: 1
EndChar

StartChar: zero
Encoding: 48 48 54
Width: 898
VWidth: 0
Flags: HW
LayerCount: 2
Fore
SplineSet
291 54 m 0
 105 109 54 171 54 346 c 0
 54 484 110 581 244 682 c 0
 272 703 295 726 296 735 c 0
 297 744 299 759 300 768 c 0
 301 779 332 784 374 784 c 0
 435 784 519 773 568 755 c 0
 666 718 698 694 769 600 c 0
 820 534 845 450 845 370 c 0
 845 288 819 211 766 158 c 0
 682 74 571 30 450 30 c 0
 399 30 345 38 291 54 c 0
620 182 m 0
 719 232 749 276 749 371 c 0
 749 473 678 584 576 644 c 0
 532 670 512 681 487 681 c 0
 470 681 451 676 422 668 c 0
 260 624 146 480 146 344 c 0
 146 314 151 285 163 257 c 0
 188 198 230 173 352 146 c 0
 390 137 422 133 452 133 c 0
 506 133 552 148 620 182 c 0
EndSplineSet
Validated: 1
EndChar

StartChar: one
Encoding: 49 49 55
Width: 245
VWidth: 0
Flags: HW
VStem: 65 89<46 359>
LayerCount: 2
Fore
SplineSet
64 51 m 0
 62 58 60 81 60 114 c 0
 60 150 62 198 65 247 c 0
 71 341 80 493 85 586 c 0
 90 679 102 763 111 774 c 0
 117 781 125 785 133 785 c 0
 153 785 177 764 182 736 c 0
 186 713 188 665 188 610 c 0
 188 511 182 387 173 338 c 0
 165 294 156 215 154 162 c 0
 152 109 144 57 135 46 c 0
 125 33 112 27 99 27 c 0
 84 27 70 35 64 51 c 0
EndSplineSet
Validated: 1
EndChar

StartChar: two
Encoding: 50 50 56
Width: 871
VWidth: 0
Flags: HW
HStem: 42 115<193 737> 667 108<170 635>
LayerCount: 2
Fore
SplineSet
64 42 m 0
 51 55 45 69 45 89 c 0
 45 115 56 153 79 213 c 0
 135 360 248 426 467 442 c 0
 647 455 733 487 733 544 c 0
 733 556 729 570 721 584 c 0
 691 640 622 662 448 667 c 0
 357 670 265 673 242 675 c 0
 219 677 180 681 155 682 c 0
 121 684 110 693 110 718 c 0
 110 762 152 778 291 778 c 0
 327 778 370 777 421 775 c 0
 648 766 750 739 802 677 c 0
 815 662 822 604 822 549 c 0
 822 513 819 477 812 456 c 0
 792 392 668 349 440 328 c 0
 326 317 220 268 195 213 c 0
 185 192 179 178 179 170 c 0
 179 159 189 156 217 156 c 0
 227 156 239 157 254 157 c 0
 276 157 317 158 368 158 c 0
 419 158 478 157 533 157 c 0
 697 155 738 150 756 128 c 0
 765 117 769 109 769 104 c 0
 769 99 766 96 758 94 c 0
 747 90 737 76 737 62 c 0
 737 46 716 40 612 40 c 0
 577 40 533 41 477 42 c 0
 444 43 411 43 379 43 c 0
 272 43 179 39 151 34 c 0
 132 30 117 29 105 29 c 0
 86 29 73 33 64 42 c 0
EndSplineSet
Validated: 1
EndChar

StartChar: three
Encoding: 51 51 57
Width: 840
VWidth: 0
Flags: HW
HStem: 66 95<228 575> 358 111<384 594> 664 81<182 327>
LayerCount: 2
Fore
SplineSet
151 58 m 0
 137 67 110 75 91 75 c 0
 62 75 44 92 44 115 c 0
 44 124 47 133 53 143 c 0
 62 157 93 163 191 163 c 0
 223 163 263 162 311 161 c 0
 358 160 398 160 430 160 c 0
 540 160 574 166 613 186 c 0
 659 210 680 239 680 266 c 0
 680 308 629 347 537 358 c 0
 354 380 297 394 288 418 c 0
 286 423 285 428 285 432 c 0
 285 459 329 468 444 469 c 0
 576 470 646 498 646 552 c 0
 646 592 580 621 484 621 c 0
 441 621 362 632 308 646 c 0
 263 658 220 665 200 665 c 0
 196 665 193 665 191 664 c 0
 189 663 186 663 183 663 c 0
 171 663 154 669 140 679 c 0
 126 690 119 697 119 707 c 0
 119 714 122 721 128 731 c 0
 139 750 162 759 223 759 c 0
 268 759 334 754 432 745 c 0
 589 730 686 695 737 634 c 0
 756 611 767 593 767 571 c 0
 767 547 754 518 728 469 c 0
 723 459 720 451 720 443 c 0
 720 429 728 417 748 395 c 0
 777 364 787 335 787 274 c 0
 787 136 698 73 493 66 c 0
 422 64 322 58 270 52 c 0
 250 50 230 49 212 49 c 0
 183 49 160 52 151 58 c 0
EndSplineSet
Validated: 1
EndChar

StartChar: four
Encoding: 52 52 58
Width: 857
VWidth: 0
Flags: HW
HStem: 346 113<218 618>
LayerCount: 2
Fore
SplineSet
644 56 m 0
 640 65 637 79 637 96 c 0
 637 110 639 124 642 139 c 0
 649 171 655 223 655 257 c 0
 655 336 619 345 338 346 c 0
 155 347 98 352 78 370 c 0
 66 381 57 397 57 407 c 0
 57 409 58 410 58 411 c 0
 61 421 68 492 72 569 c 0
 79 689 85 714 115 745 c 0
 135 766 152 776 166 776 c 0
 187 776 200 752 200 707 c 0
 200 701 199 695 199 688 c 0
 198 678 198 665 198 652 c 0
 198 615 201 570 206 538 c 2
 218 460 l 1
 373 460 l 2
 458 460 558 455 596 449 c 2
 665 438 l 1
 690 538 l 2
 704 593 716 666 716 701 c 0
 716 746 722 765 744 765 c 0
 754 765 767 761 783 755 c 0
 799 749 807 713 807 661 c 0
 807 620 802 570 792 514 c 0
 784 468 772 379 767 315 c 0
 746 53 742 39 698 34 c 0
 694 34 691 33 688 33 c 0
 667 33 652 41 644 56 c 0
EndSplineSet
Validated: 1
EndChar

StartChar: five
Encoding: 53 53 59
Width: 945
VWidth: 0
Flags: HW
HStem: 60 93<94 354> 66 97<89 569> 655 83<78 116>
VStem: 100 119<456 613>
LayerCount: 2
Fore
SplineSet
101 60 m 0xb0
 81 66 72 83 72 102 c 0
 72 124 85 147 109 153 c 0xb0
 129 158 237 163 349 163 c 0
 523 163 560 168 605 196 c 0
 639 217 656 236 656 256 c 0
 656 270 648 285 633 300 c 0
 607 326 561 337 457 337 c 0
 386 337 289 332 154 322 c 0
 144 321 135 321 128 321 c 0
 105 321 99 327 99 352 c 0
 99 358 100 366 100 375 c 0
 101 406 108 480 114 539 c 0
 118 574 120 598 120 614 c 0
 120 645 112 650 91 655 c 0
 69 661 55 687 55 709 c 0
 55 721 59 732 69 738 c 0
 72 740 83 740 99 740 c 0
 123 740 158 739 195 735 c 0
 219 733 246 731 273 731 c 0
 325 731 379 736 430 745 c 0
 486 755 580 760 669 760 c 0
 771 760 865 753 884 741 c 0
 896 734 902 721 902 710 c 0
 902 700 897 691 887 691 c 0
 885 691 882 692 879 693 c 0
 876 694 873 695 870 695 c 0
 862 695 859 689 859 678 c 0
 859 675 859 670 859 667 c 0
 859 651 850 646 825 646 c 0
 821 646 817 646 812 646 c 0
 738 650 672 652 613 652 c 0
 517 652 437 647 361 635 c 2
 219 613 l 1
 219 535 l 1
 219 456 l 1
 321 453 l 2
 377 451 448 448 479 447 c 0
 675 441 748 388 753 246 c 0
 753 234 754 224 754 215 c 0
 754 166 745 157 704 132 c 0
 647 98 486 66 371 66 c 0
 366 66 361 66 356 66 c 0x70
 349 66 340 66 332 66 c 0
 290 66 236 64 203 60 c 0
 183 58 161 56 143 56 c 0
 125 56 109 58 101 60 c 0xb0
EndSplineSet
Validated: 1
EndChar

StartChar: six
Encoding: 54 54 60
Width: 870
VWidth: 0
Flags: HW
LayerCount: 2
Fore
SplineSet
240 76 m 0
 154 113 75 186 63 239 c 0
 57 264 54 297 54 332 c 0
 54 387 61 446 75 487 c 0
 118 618 464 767 662 767 c 0
 707 767 744 759 768 742 c 0
 787 729 797 716 797 706 c 0
 797 686 759 672 685 665 c 0
 588 656 367 594 350 571 c 0
 346 565 327 556 308 550 c 0
 289 544 257 520 235 497 c 2
 196 456 l 1
 317 469 l 2
 392 477 457 482 514 482 c 0
 674 482 763 448 803 376 c 0
 813 358 818 338 818 316 c 0
 818 219 722 100 603 70 c 0
 558 59 491 53 426 53 c 0
 349 53 275 61 240 76 c 0
567 183 m 0
 643 202 724 274 724 321 c 0
 724 354 642 372 536 372 c 0
 445 372 337 359 249 332 c 0
 187 313 168 305 168 288 c 0
 168 282 170 276 173 268 c 0
 197 204 302 165 424 165 c 0
 470 165 519 171 567 183 c 0
EndSplineSet
Validated: 1
EndChar

StartChar: seven
Encoding: 55 55 61
Width: 786
VWidth: 0
Flags: HW
HStem: 643 113<135 492>
LayerCount: 2
Fore
SplineSet
185 63 m 0
 185 64 184 66 184 68 c 0
 184 120 371 412 495 551 c 0
 527 587 553 621 553 627 c 0
 553 642 445 652 345 652 c 0
 292 652 242 650 211 643 c 0
 152 631 114 624 90 624 c 0
 60 624 51 634 51 655 c 0
 51 659 51 664 52 669 c 0
 58 717 66 721 231 756 c 0
 267 764 301 767 342 767 c 0
 382 767 428 764 491 757 c 0
 571 748 653 743 687 743 c 0
 692 743 696 743 699 743 c 0
 703 743 707 744 711 744 c 0
 733 744 742 734 742 705 c 0
 742 676 706 630 614 536 c 0
 543 464 472 379 456 348 c 0
 405 249 243 39 218 39 c 0
 205 39 190 50 185 63 c 0
EndSplineSet
Validated: 1
EndChar

StartChar: eight
Encoding: 56 56 62
Width: 856
VWidth: 0
Flags: HW
HStem: 338 108<248 602>
LayerCount: 2
Fore
SplineSet
199 62 m 0
 103 87 43 141 43 202 c 0
 43 243 83 317 117 338 c 0
 130 346 136 359 136 373 c 0
 136 389 128 407 112 423 c 0
 98 437 92 455 92 487 c 0
 92 498 93 510 94 525 c 0
 100 588 112 613 162 663 c 0
 228 729 351 771 464 771 c 0
 484 771 503 770 522 767 c 0
 619 753 772 684 793 645 c 0
 805 622 811 595 811 566 c 0
 811 499 780 425 730 386 c 0
 720 379 715 372 715 364 c 0
 715 354 722 342 735 319 c 0
 748 296 755 274 755 252 c 0
 755 177 677 113 542 84 c 0
 495 74 431 59 400 51 c 0
 369 43 347 39 324 39 c 0
 293 39 259 47 199 62 c 0
535 184 m 0
 619 210 645 222 645 246 c 0
 645 254 642 264 637 276 c 0
 620 323 576 338 460 338 c 0
 456 338 453 338 449 338 c 0
 270 336 262 335 204 281 c 0
 173 252 157 229 157 210 c 0
 157 191 173 175 203 162 c 0
 219 155 251 152 290 152 c 0
 367 152 471 164 535 184 c 0
683 474 m 0
 702 493 712 516 712 544 c 0
 712 548 711 552 711 556 c 0
 704 624 619 668 496 668 c 0
 493 668 491 668 488 668 c 0
 320 666 212 614 195 528 c 0
 193 519 192 512 192 505 c 0
 192 459 241 453 483 446 c 0
 518 445 546 444 569 444 c 0
 644 444 660 451 683 474 c 0
EndSplineSet
Validated: 1
EndChar

StartChar: nine
Encoding: 57 57 63
Width: 837
VWidth: 0
Flags: HW
LayerCount: 2
Fore
SplineSet
148 74 m 0
 88 98 56 128 56 157 c 0
 56 164 58 171 62 178 c 0
 68 188 84 193 100 193 c 0
 115 193 130 188 136 179 c 0
 144 166 230 148 301 145 c 0
 305 145 309 145 314 145 c 0
 389 145 539 167 584 186 c 0
 637 208 667 246 667 291 c 0
 667 305 663 311 648 311 c 0
 642 311 633 310 623 308 c 0
 555 295 436 287 339 287 c 0
 277 287 223 290 198 297 c 0
 105 323 57 385 57 469 c 0
 57 507 66 549 86 594 c 0
 117 665 130 678 212 718 c 0
 287 755 359 773 429 773 c 0
 471 773 511 767 551 754 c 0
 628 729 697 681 697 653 c 0
 697 645 710 621 725 599 c 0
 762 546 782 475 782 395 c 0
 782 364 779 332 773 299 c 0
 751 175 722 134 627 89 c 0
 567 61 458 46 354 46 c 0
 273 46 195 55 148 74 c 0
589 412 m 0
 668 420 682 426 682 450 c 0
 682 503 609 625 563 649 c 0
 534 664 491 671 444 671 c 0
 388 671 326 661 277 640 c 0
 216 614 197 596 173 542 c 0
 161 515 155 491 155 471 c 0
 155 441 168 418 195 398 c 0
 200 394 225 392 263 392 c 0
 337 392 462 399 589 412 c 0
EndSplineSet
Validated: 1
EndChar

StartChar: colon
Encoding: 58 58 64
Width: 275
VWidth: 0
Flags: HW
LayerCount: 2
Fore
SplineSet
75 77 m 0
 61 91 51 114 51 133 c 0
 51 136 51 139 52 142 c 0
 56 161 59 185 60 193 c 0
 61 204 78 209 100 209 c 0
 135 209 183 196 190 176 c 0
 198 155 202 134 202 117 c 0
 202 89 191 68 171 60 c 0
 152 53 138 49 126 49 c 0
 108 49 95 57 75 77 c 0
89 452 m 0
 75 468 68 485 68 501 c 0
 68 532 93 558 135 565 c 0
 136 565 138 565 139 565 c 0
 174 565 220 509 220 471 c 0
 220 464 218 458 215 453 c 0
 203 433 180 423 156 423 c 0
 132 423 106 433 89 452 c 0
EndSplineSet
Validated: 1
EndChar

StartChar: semicolon
Encoding: 59 59 65
Width: 364
VWidth: 0
Flags: HW
LayerCount: 2
Fore
SplineSet
46 -54 m 0
 56 -11 134 125 186 190 c 0
 187 192 189 192 191 192 c 0
 215 192 294 128 294 105 c 0
 294 62 117 -109 73 -109 c 0
 50 -109 41 -105 41 -88 c 0
 41 -80 43 -69 46 -54 c 0
175 441 m 0
 165 454 160 469 160 485 c 0
 160 517 180 550 213 559 c 0
 218 560 222 561 227 561 c 0
 268 561 308 519 308 482 c 0
 308 473 306 465 301 457 c 0
 285 431 256 417 228 417 c 0
 208 417 188 425 175 441 c 0
EndSplineSet
Validated: 1
EndChar

StartChar: less
Encoding: 60 60 66
Width: 940
VWidth: 0
Flags: HW
LayerCount: 2
Fore
SplineSet
670 52 m 0
 596 123 459 183 150 281 c 0
 82 302 49 328 49 362 c 0
 49 377 56 394 69 414 c 0
 98 458 244 532 369 567 c 0
 405 577 461 605 493 629 c 0
 583 695 792 778 861 778 c 0
 869 778 875 776 879 774 c 0
 889 768 895 749 895 729 c 0
 895 725 895 720 894 716 c 0
 889 683 872 670 820 659 c 0
 749 644 641 589 566 530 c 0
 542 511 479 482 426 465 c 0
 373 448 314 423 295 410 c 0
 279 398 270 392 270 387 c 0
 270 382 279 377 295 368 c 0
 314 358 367 340 413 328 c 0
 504 304 686 220 726 183 c 0
 740 170 757 159 765 159 c 0
 787 159 807 111 807 77 c 0
 807 65 805 56 799 50 c 0
 785 36 761 30 737 30 c 0
 711 30 685 37 670 52 c 0
EndSplineSet
Validated: 1
EndChar

StartChar: equal
Encoding: 61 61 67
Width: 595
VWidth: 0
Flags: HW
HStem: 170 140<94 435> 391 135<95 482>
LayerCount: 2
Fore
SplineSet
458 161 m 0
 453 166 377 170 289 170 c 0
 117 170 58 188 58 242 c 0
 58 295 82 314 176 314 c 0
 199 314 227 313 259 311 c 0
 457 298 522 274 522 216 c 0
 522 184 496 154 474 154 c 0
 468 154 463 156 458 161 c 0
85 422 m 0
 71 437 61 462 61 481 c 0
 61 484 61 487 62 490 c 0
 68 521 91 526 266 527 c 0
 374 528 469 534 476 541 c 0
 479 544 484 546 488 546 c 0
 510 546 541 509 541 476 c 0
 541 419 467 394 285 391 c 0
 269 391 254 391 241 391 c 0
 138 391 107 398 85 422 c 0
EndSplineSet
Validated: 1
EndChar

StartChar: greater
Encoding: 62 62 68
Width: 917
VWidth: 0
Flags: HW
LayerCount: 2
Fore
SplineSet
53 80 m 0
 47 91 44 100 44 109 c 0
 44 148 108 173 295 219 c 0
 496 269 624 316 624 357 c 0
 624 370 593 395 551 415 c 0
 323 525 119 679 119 737 c 0
 119 740 119 742 120 744 c 0
 129 769 147 782 171 782 c 0
 209 782 265 752 341 691 c 0
 381 659 502 584 512 584 c 0
 518 584 602 545 698 497 c 0
 841 426 869 408 869 374 c 0
 869 371 868 368 868 364 c 0
 865 339 849 311 834 304 c 0
 609 194 470 135 427 130 c 0
 398 127 366 119 355 112 c 0
 344 106 304 95 264 89 c 0
 224 83 177 70 160 61 c 0
 140 51 123 45 107 45 c 0
 84 45 66 57 53 80 c 0
EndSplineSet
Validated: 1
EndChar

StartChar: question
Encoding: 63 63 69
Width: 738
VWidth: 0
Flags: HW
HStem: 657 104<88 511>
LayerCount: 2
Fore
SplineSet
303 50 m 0
 292 61 286 73 286 88 c 0
 286 106 294 128 312 157 c 0
 329 186 351 201 370 201 c 0
 385 201 399 192 409 174 c 0
 413 167 414 160 414 152 c 0
 414 106 361 42 323 42 c 0
 316 42 309 44 303 50 c 0
320 281 m 0
 308 301 302 321 302 342 c 0
 302 422 386 502 509 525 c 0
 541 531 578 551 594 568 c 0
 607 582 614 591 614 598 c 0
 614 606 605 613 587 628 c 0
 554 655 502 668 430 668 c 0
 392 668 349 664 301 657 c 0
 227 645 172 639 133 639 c 0
 76 639 53 652 53 680 c 0
 53 687 54 695 57 704 c 0
 70 744 90 750 238 762 c 0
 308 768 366 770 415 770 c 0
 515 770 576 758 622 733 c 0
 683 699 687 694 691 609 c 0
 692 593 692 580 692 569 c 0
 692 522 683 511 647 480 c 0
 620 458 568 432 532 422 c 0
 455 402 411 367 411 328 c 0
 411 279 389 250 364 250 c 0
 349 250 334 259 320 281 c 0
EndSplineSet
Validated: 1
EndChar

StartChar: at
Encoding: 64 64 70
Width: 824
VWidth: 0
Flags: HW
LayerCount: 2
Fore
SplineSet
302 51 m 0
 226 74 128 157 89 232 c 0
 65 277 54 331 54 385 c 0
 54 445 68 505 97 549 c 0
 197 704 301 774 435 774 c 0
 453 774 472 772 491 770 c 0
 572 759 652 700 724 597 c 0
 757 550 773 488 773 434 c 0
 773 379 756 332 723 317 c 0
 704 308 669 291 644 277 c 0
 619 263 562 251 517 249 c 0
 472 247 419 237 399 226 c 0
 384 218 370 213 355 213 c 0
 329 213 303 227 272 256 c 0
 248 278 236 313 236 352 c 0
 236 396 251 445 282 487 c 0
 334 559 373 593 416 593 c 0
 445 593 476 577 515 548 c 0
 555 518 568 503 568 477 c 0
 568 471 567 463 566 455 c 0
 562 428 552 394 546 379 c 0
 544 374 543 370 543 366 c 0
 543 356 550 351 562 351 c 0
 579 351 605 360 636 378 c 0
 667 396 682 422 682 454 c 0
 682 487 666 527 633 572 c 0
 582 643 513 676 443 676 c 0
 344 676 241 608 179 481 c 0
 156 433 146 411 146 386 c 0
 146 370 150 354 157 330 c 0
 169 291 205 236 245 196 c 0
 303 138 322 129 379 129 c 0
 416 129 492 147 548 169 c 0
 598 189 631 200 651 200 c 0
 674 200 682 187 682 159 c 0
 682 136 657 115 591 85 c 0
 524 54 454 38 391 38 c 0
 359 38 329 43 302 51 c 0
406 347 m 0
 425 362 444 401 450 434 c 0
 453 451 455 464 455 473 c 0
 455 491 447 494 428 494 c 0
 390 494 333 410 333 355 c 0
 333 332 341 321 355 321 c 0
 367 321 384 329 406 347 c 0
EndSplineSet
Validated: 1
EndChar

StartChar: exclam
Encoding: 33 33 71
Width: 263
VWidth: 0
Flags: HW
HStem: 749 20G<153 211>
VStem: 50 111<71 143> 77 99<280 531> 128 84<679 768>
LayerCount: 2
Fore
SplineSet
62 81 m 0xc0
 54 92 48 105 48 117 c 0
 48 121 49 125 50 128 c 0xc0
 57 147 92 163 113 163 c 0
 122 163 128 160 128 153 c 0x90
 128 144 135 141 144 147 c 0
 145 148 147 148 148 148 c 0
 155 148 161 136 161 117 c 0
 161 80 136 57 108 57 c 0
 92 57 75 65 62 81 c 0xc0
79 295 m 0
 72 309 68 322 68 336 c 0
 68 348 71 361 77 377 c 0xa0
 87 402 95 479 95 546 c 0
 95 613 102 672 111 678 c 0
 120 684 128 707 128 729 c 0
 128 761 137 770 170 770 c 2
 211 770 l 1x90
 200 558 l 2
 194 442 184 330 177 311 c 0xa0
 166 282 144 267 122 267 c 0
 105 267 89 276 79 295 c 0
EndSplineSet
Validated: 1
EndChar

StartChar: quotedbl
Encoding: 34 34 72
Width: 465
VWidth: 0
Flags: HW
LayerCount: 2
Fore
SplineSet
320 526 m 0
 305 541 299 558 299 591 c 0
 299 607 300 627 303 652 c 0
 317 781 324 808 356 808 c 0
 360 808 364 808 369 807 c 0
 403 802 407 790 409 695 c 0
 409 682 409 670 409 659 c 0
 409 549 397 497 368 497 c 0
 355 497 339 507 320 526 c 0
92 528 m 0
 82 535 72 593 70 657 c 0
 69 676 69 691 69 705 c 0
 69 764 76 779 100 792 c 0
 118 802 132 807 144 807 c 0
 173 807 184 774 184 692 c 0
 184 681 183 669 183 657 c 0
 180 539 176 523 146 519 c 0
 143 519 140 518 136 518 c 0
 119 518 100 522 92 528 c 0
EndSplineSet
Validated: 1
EndChar

StartChar: numbersign
Encoding: 35 35 73
Width: 1022
VWidth: 0
Flags: HW
LayerCount: 2
Fore
SplineSet
612 45 m 4
 605 52 599 96 599 142 c 4
 599 221 596 225 543 225 c 4
 451 225 426 207 426 139 c 4
 426 99 415 71 396 64 c 4
 378 57 364 53 352 53 c 0
 324 53 311 75 302 129 c 4
 290 198 283 206 234 206 c 4
 176 206 43 261 43 285 c 4
 43 317 90 349 128 349 c 0
 134 349 141 348 146 346 c 4
 169 338 213 331 244 331 c 4
 246 331 249 331 251 331 c 0
 294 331 302 341 311 388 c 4
 313 400 315 409 315 417 c 0
 315 446 295 456 219 487 c 4
 134 522 106 532 106 551 c 0
 106 560 113 571 123 588 c 4
 136 610 152 620 171 620 c 0
 176 620 181 620 187 618 c 4
 243 602 277 592 298 592 c 0
 329 592 330 614 334 668 c 4
 339 736 347 753 380 758 c 4
 384 759 388 759 392 759 c 0
 416 759 424 742 432 683 c 4
 442 609 456 580 507 580 c 0
 534 580 571 588 623 602 c 4
 643 607 656 629 656 655 c 4
 656 701 689 738 725 738 c 0
 731 738 738 737 744 735 c 4
 760 729 768 716 768 696 c 0
 768 690 767 683 766 676 c 4
 764 667 763 660 763 654 c 0
 763 630 783 627 865 623 c 4
 960 618 973 613 978 575 c 4
 979 569 979 565 979 560 c 0
 979 519 943 509 775 495 c 4
 761 494 755 479 755 448 c 0
 755 440 755 432 756 422 c 4
 761 367 771 348 800 344 c 4
 895 330 924 318 924 294 c 4
 924 251 865 215 792 215 c 4
 725 215 723 213 714 129 c 4
 706 61 696 41 665 37 c 4
 660 36 655 36 650 36 c 0
 633 36 617 40 612 45 c 4
619 388 m 4
 629 413 634 431 634 444 c 0
 634 468 615 474 569 474 c 4
 483 474 426 445 426 400 c 4
 426 355 433 348 505 348 c 0
 511 348 517 348 524 348 c 4
 585 349 607 359 619 388 c 4
EndSplineSet
Validated: 1
EndChar

StartChar: dollar
Encoding: 36 36 74
Width: 897
VWidth: 0
Flags: HW
LayerCount: 2
Fore
SplineSet
388 58 m 0
 376 90 351 101 269 101 c 0
 243 101 211 100 172 98 c 0
 162 97 152 97 143 97 c 0
 76 97 41 113 41 143 c 0
 41 183 90 200 204 200 c 0
 219 200 235 200 252 199 c 2
 389 195 l 1
 384 276 l 1
 380 357 l 1
 320 360 l 2
 162 366 120 393 120 488 c 0
 120 554 180 611 317 674 c 0
 384 705 435 738 435 751 c 0
 435 763 448 781 465 790 c 0
 474 794 481 797 487 797 c 0
 499 797 510 788 526 767 c 0
 546 742 556 733 598 733 c 0
 618 733 644 735 682 738 c 0
 716 741 741 742 761 742 c 0
 802 742 817 736 833 720 c 0
 846 707 854 693 854 685 c 0
 854 683 854 682 853 681 c 0
 840 660 709 633 619 633 c 2
 533 633 l 1
 524 574 l 2
 519 544 516 523 516 509 c 0
 516 480 529 477 566 471 c 0
 646 458 759 399 779 360 c 0
 794 331 801 300 801 260 c 0
 801 250 801 241 800 230 c 0
 797 195 621 87 541 71 c 0
 517 66 490 52 480 40 c 0
 468 26 453 19 439 19 c 0
 418 19 398 33 388 58 c 0
634 216 m 0
 672 238 703 267 703 280 c 0
 703 307 587 364 533 365 c 0
 500 365 498 358 498 270 c 0
 498 184 501 176 532 176 c 0
 551 176 596 194 634 216 c 0
406 525 m 0
 407 538 408 550 408 561 c 0
 408 579 406 592 403 594 c 0
 402 594 401 595 400 595 c 0
 374 595 224 513 218 495 c 0
 217 493 217 491 217 490 c 0
 217 473 254 465 335 463 c 0
 342 463 348 463 354 463 c 0
 400 463 401 469 406 525 c 0
EndSplineSet
Validated: 1
EndChar

StartChar: percent
Encoding: 37 37 75
Width: 961
VWidth: 0
Flags: HW
LayerCount: 2
Fore
SplineSet
631 44 m 0
 552 57 498 112 498 174 c 0
 498 181 499 188 500 195 c 0
 524 308 622 410 699 410 c 0
 710 410 721 408 731 403 c 0
 753 393 782 385 795 385 c 0
 808 385 838 368 861 346 c 0
 889 320 899 306 899 270 c 0
 899 258 898 243 896 224 c 0
 890 158 878 133 841 104 c 0
 788 61 732 40 674 40 c 0
 660 40 646 41 631 44 c 0
744 143 m 0
 782 160 802 206 802 242 c 0
 802 270 790 292 764 292 c 0
 763 292 762 292 760 292 c 0
 695 286 630 265 618 248 c 0
 610 236 606 209 606 184 c 0
 606 162 609 142 616 135 c 0
 623 128 639 124 658 124 c 0
 684 124 717 131 744 143 c 0
44 101 m 0
 43 103 43 105 43 107 c 0
 43 149 172 270 279 325 c 0
 328 350 398 393 434 420 c 0
 470 447 538 494 585 525 c 0
 632 556 702 614 740 654 c 0
 794 709 846 741 879 741 c 0
 893 741 904 735 909 722 c 0
 910 720 910 719 910 717 c 0
 910 650 572 371 352 259 c 0
 316 241 241 191 186 150 c 0
 119 99 86 78 67 78 c 0
 55 78 50 86 44 101 c 0
198 403 m 0
 136 416 83 469 83 519 c 0
 83 537 99 587 118 632 c 0
 154 715 196 752 261 752 c 0
 276 752 293 750 311 746 c 0
 424 720 482 671 482 598 c 0
 482 580 479 562 472 541 c 0
 445 458 346 398 247 398 c 0
 231 398 214 400 198 403 c 0
335 519 m 0
 369 534 379 544 379 575 c 0
 379 584 378 594 377 606 c 0
 373 646 344 664 310 664 c 0
 253 664 181 615 181 546 c 0
 181 504 186 500 237 500 c 0
 268 500 312 509 335 519 c 0
EndSplineSet
Validated: 1
EndChar

StartChar: ampersand
Encoding: 38 38 76
Width: 880
VWidth: 0
Flags: HW
LayerCount: 2
Fore
SplineSet
701 80 m 0
 672 105 659 116 637 116 c 0
 619 116 593 108 548 94 c 0
 499 79 426 71 355 71 c 0
 297 71 240 76 200 87 c 0
 166 96 116 122 89 145 c 0
 56 173 45 186 45 217 c 0
 45 227 46 239 48 254 c 0
 59 351 108 396 250 439 c 2
 293 453 l 1
 215 550 l 2
 172 604 137 654 137 662 c 0
 137 685 211 727 262 733 c 0
 288 736 324 748 343 758 c 0
 363 769 424 774 492 774 c 0
 579 774 676 766 708 751 c 0
 731 740 761 708 775 680 c 0
 785 659 790 639 790 617 c 0
 790 581 776 543 746 496 c 0
 722 459 630 410 573 404 c 0
 545 401 530 395 530 384 c 0
 530 371 551 349 594 311 c 2
 671 243 l 1
 721 292 l 2
 748 319 763 330 775 330 c 0
 782 330 788 327 795 321 c 0
 810 308 818 292 818 276 c 0
 818 257 808 237 788 219 c 0
 772 205 765 198 765 190 c 0
 765 183 772 175 786 159 c 0
 812 130 826 104 826 84 c 0
 826 74 822 65 815 58 c 0
 804 47 792 42 778 42 c 0
 756 42 731 55 701 80 c 0
499 182 m 2
 559 198 l 1
 522 238 l 2
 464 300 373 358 336 358 c 0
 333 358 330 358 328 357 c 0
 255 333 152 280 145 262 c 0
 142 255 141 248 141 242 c 0
 141 217 161 196 196 183 c 0
 224 172 283 167 343 167 c 0
 402 167 463 172 499 182 c 2
610 513 m 0
 631 524 664 552 682 575 c 0
 698 596 706 607 706 617 c 0
 706 625 701 631 692 640 c 0
 672 660 589 672 509 672 c 0
 458 672 408 667 377 656 c 0
 338 642 319 629 319 609 c 0
 319 591 334 567 363 530 c 0
 394 490 405 478 437 478 c 0
 450 478 467 480 490 483 c 0
 535 488 589 502 610 513 c 0
EndSplineSet
Validated: 1
EndChar

StartChar: quotesingle
Encoding: 39 39 77
Width: 257
VWidth: 0
Flags: HW
VStem: 70 115<578 765>
LayerCount: 2
Fore
SplineSet
82 528 m 0
 75 535 70 587 70 644 c 0
 70 721 78 755 103 778 c 0
 127 799 147 809 163 809 c 0
 189 809 204 784 204 740 c 0
 204 712 198 677 185 636 c 0
 159 556 133 516 107 516 c 0
 99 516 90 520 82 528 c 0
EndSplineSet
Validated: 1
EndChar

StartChar: parenleft
Encoding: 40 40 78
Width: 346
VWidth: 0
Flags: HW
LayerCount: 2
Fore
SplineSet
130 70 m 0
 80 126 69 151 59 247 c 0
 57 269 56 291 56 313 c 0
 56 487 122 674 227 779 c 0
 243 795 256 804 266 804 c 0
 278 804 286 793 293 771 c 0
 294 768 295 764 295 759 c 0
 295 732 277 684 245 617 c 0
 213 551 181 459 175 412 c 0
 173 398 172 383 172 368 c 0
 172 267 210 144 260 98 c 0
 286 73 299 55 299 41 c 0
 299 30 291 21 275 15 c 0
 259 9 245 6 232 6 c 0
 199 6 171 25 130 70 c 0
EndSplineSet
Validated: 1
EndChar

StartChar: parenright
Encoding: 41 41 79
Width: 320
VWidth: 0
Flags: HW
LayerCount: 2
Fore
SplineSet
71 21 m 0
 55 30 46 41 46 59 c 0
 46 84 62 122 95 189 c 0
 140 281 146 307 147 438 c 0
 147 447 147 456 147 464 c 0
 147 573 140 600 101 677 c 0
 76 726 65 751 65 767 c 0
 65 778 70 785 79 794 c 0
 89 804 100 809 111 809 c 0
 175 809 249 655 262 476 c 0
 264 447 265 423 265 400 c 0
 265 307 246 250 184 119 c 0
 147 41 126 11 100 11 c 0
 91 11 82 15 71 21 c 0
EndSplineSet
Validated: 1
EndChar

StartChar: asterisk
Encoding: 42 42 80
Width: 496
VWidth: 0
Flags: HW
LayerCount: 2
Fore
SplineSet
240 445 m 0
 229 449 221 463 221 475 c 0
 221 489 204 496 187 496 c 0
 173 496 158 491 152 481 c 0
 146 471 126 466 106 466 c 0
 86 466 66 471 60 481 c 0
 57 486 55 494 55 501 c 0
 55 526 73 557 95 565 c 0
 109 570 134 583 150 595 c 0
 162 604 169 610 169 618 c 0
 169 628 159 641 137 670 c 0
 112 703 101 733 101 755 c 0
 101 776 111 789 129 789 c 0
 145 789 168 778 194 752 c 2
 227 719 l 1
 236 757 l 2
 242 783 264 797 284 797 c 0
 303 797 322 785 325 760 c 0
 328 737 331 728 340 728 c 0
 347 728 357 733 375 742 c 0
 385 748 394 750 402 750 c 0
 411 750 420 747 428 740 c 0
 442 729 448 719 448 708 c 0
 448 692 433 676 400 657 c 0
 359 633 340 618 340 601 c 0
 340 588 350 574 370 553 c 0
 392 531 401 517 401 504 c 0
 401 497 398 491 394 484 c 0
 385 470 360 457 338 457 c 0
 316 457 293 452 287 446 c 0
 281 440 276 437 269 437 c 0
 262 437 254 440 240 445 c 0
EndSplineSet
Validated: 1
EndChar

StartChar: plus
Encoding: 43 43 81
Width: 644
VWidth: 0
Flags: HW
HStem: 286 132<103 215> 288 140<382 541>
VStem: 219 129<159 285> 249 132<441 547>
LayerCount: 2
Fore
SplineSet
219 124 m 4x60
 211 139 207 162 207 187 c 0
 207 199 208 212 210 224 c 4
 213 242 215 254 215 263 c 0
 215 284 204 286 167 286 c 4
 132 286 103 300 85 326 c 4
 74 341 69 355 69 367 c 0
 69 396 100 413 162 418 c 4
 223 423 230 431 249 497 c 4
 264 550 287 578 316 578 c 0
 330 578 345 571 360 559 c 4
 374 547 382 525 382 501 c 0
 382 496 382 491 381 486 c 4x90
 380 477 379 469 379 463 c 0
 379 438 394 434 454 428 c 4
 546 418 562 405 571 341 c 4
 572 332 574 325 574 319 c 0
 574 293 549 294 389 288 c 4
 353 287 348 277 348 211 c 4
 348 137 309 86 270 86 c 0
 251 86 233 98 219 124 c 4x60
EndSplineSet
Validated: 1
EndChar

StartChar: comma
Encoding: 44 44 82
Width: 363
VWidth: 0
Flags: HW
LayerCount: 2
Fore
SplineSet
53 -53 m 0
 63 -10 141 125 193 190 c 0
 194 192 197 192 199 192 c 0
 223 192 301 129 301 106 c 0
 301 63 124 -108 80 -108 c 0
 57 -108 48 -104 48 -87 c 0
 48 -79 50 -68 53 -53 c 0
EndSplineSet
Validated: 1
EndChar

StartChar: hyphen
Encoding: 45 45 83
Width: 587
VWidth: 0
Flags: HW
LayerCount: 2
Fore
SplineSet
73 314 m 0
 65 322 61 338 61 355 c 0
 61 382 70 411 85 417 c 0
 98 422 192 428 295 430 c 0
 335 431 367 432 392 432 c 0
 479 432 488 424 509 392 c 0
 521 373 528 362 528 354 c 0
 528 345 521 339 506 328 c 0
 485 313 326 302 206 302 c 0
 137 302 81 306 73 314 c 0
EndSplineSet
Validated: 1
EndChar

StartChar: period
Encoding: 46 46 84
Width: 272
VWidth: 0
Flags: HW
LayerCount: 2
Fore
SplineSet
79 89 m 0
 65 103 55 127 55 146 c 0
 55 149 55 152 56 155 c 0
 60 174 63 197 64 205 c 0
 65 216 82 221 104 221 c 0
 139 221 187 208 194 188 c 0
 202 167 206 146 206 129 c 0
 206 101 195 80 175 72 c 0
 156 65 142 61 130 61 c 0
 112 61 99 69 79 89 c 0
EndSplineSet
Validated: 1
EndChar

StartChar: slash
Encoding: 47 47 85
Width: 908
VWidth: 0
Flags: HW
LayerCount: 2
Fore
SplineSet
45 60 m 0
 45 111 137 224 209 262 c 0
 235 276 340 368 441 465 c 0
 673 688 807 806 831 806 c 0
 851 806 864 780 864 752 c 0
 864 740 862 727 856 717 c 0
 831 672 245 127 210 116 c 0
 193 111 170 85 159 60 c 0
 145 28 116 12 91 12 c 0
 66 12 45 28 45 60 c 0
EndSplineSet
Validated: 1
EndChar

StartChar: backslash
Encoding: 92 92 86
Width: 830
VWidth: 0
Flags: HW
LayerCount: 2
Fore
SplineSet
630 61 m 0
 596 91 560 120 549 127 c 0
 538 134 497 184 456 240 c 0
 415 296 374 342 365 342 c 0
 347 342 184 541 100 666 c 0
 66 717 49 750 49 772 c 0
 49 790 60 800 82 806 c 0
 84 806 86 807 88 807 c 0
 127 807 204 731 294 606 c 0
 318 572 433 448 549 329 c 0
 740 133 783 89 783 56 c 0
 783 49 781 42 778 35 c 0
 771 17 756 8 736 8 c 0
 708 8 669 26 630 61 c 0
EndSplineSet
Validated: 1
EndChar

StartChar: bracketleft
Encoding: 91 91 87
Width: 456
VWidth: 0
Flags: HW
LayerCount: 2
Fore
SplineSet
86 30 m 0
 82 44 72 68 65 82 c 0
 59 92 57 117 57 152 c 0
 57 230 70 356 90 459 c 0
 105 538 113 599 113 643 c 0
 113 687 105 713 89 719 c 0
 73 725 65 735 65 747 c 0
 65 762 78 781 104 797 c 0
 123 809 139 815 169 815 c 0
 190 815 217 812 256 807 c 0
 389 789 407 785 407 751 c 0
 407 747 407 743 407 739 c 0
 405 698 390 682 342 682 c 0
 328 682 311 684 291 686 c 2
 213 696 l 1
 213 632 l 2
 213 597 205 543 196 511 c 0
 180 455 171 327 171 231 c 0
 171 166 175 116 185 116 c 0
 191 116 204 117 223 117 c 0
 241 117 264 116 287 116 c 0
 352 114 375 107 392 79 c 0
 400 66 404 55 404 46 c 0
 404 16 356 7 235 6 c 0
 225 6 215 6 206 6 c 0
 115 6 91 11 86 30 c 0
EndSplineSet
Validated: 1
EndChar

StartChar: bracketright
Encoding: 93 93 88
Width: 481
VWidth: 0
Flags: HW
LayerCount: 2
Fore
SplineSet
67 24 m 0
 51 40 44 53 44 65 c 0
 44 94 88 113 174 117 c 2
 278 122 l 1
 298 287 l 2
 309 378 321 503 323 565 c 2
 328 677 l 1
 257 683 l 2
 187 688 135 724 135 762 c 0
 135 770 137 778 142 786 c 0
 154 806 228 817 295 817 c 0
 349 817 399 810 411 795 c 0
 420 785 423 734 423 662 c 0
 423 449 391 55 362 26 c 0
 348 12 276 4 207 4 c 0
 143 4 81 10 67 24 c 0
EndSplineSet
Validated: 1
EndChar

StartChar: asciicircum
Encoding: 94 94 89
Width: 587
VWidth: 0
Flags: HW
LayerCount: 2
Fore
SplineSet
413 491 m 0
 394 511 378 538 378 551 c 0
 378 579 333 646 315 646 c 0
 308 646 261 610 210 565 c 0
 159 521 115 492 98 492 c 0
 97 492 95 493 94 493 c 0
 81 498 68 502 64 502 c 0
 58 502 55 505 55 510 c 0
 55 528 87 574 142 632 c 0
 188 681 242 739 261 762 c 0
 281 786 298 797 316 797 c 0
 320 797 325 796 329 795 c 0
 370 784 439 703 469 631 c 0
 482 601 502 567 515 554 c 0
 529 540 537 529 537 518 c 0
 537 507 529 495 513 479 c 0
 497 463 484 455 470 455 c 0
 453 455 436 467 413 491 c 0
EndSplineSet
Validated: 1
EndChar

StartChar: underscore
Encoding: 95 95 90
Width: 878
VWidth: 0
Flags: HW
LayerCount: 2
Fore
SplineSet
97 18 m 0
 72 23 56 46 56 69 c 0
 56 81 61 93 70 102 c 0
 88 120 293 130 479 130 c 0
 623 130 755 124 779 111 c 0
 800 99 817 81 817 71 c 0
 817 21 769 14 450 13 c 0
 272 13 113 15 97 18 c 0
EndSplineSet
Validated: 1
EndChar

StartChar: grave
Encoding: 96 96 91
Width: 286
VWidth: 0
Flags: HW
LayerCount: 2
Fore
SplineSet
105 647 m 0
 78 697 65 733 65 757 c 0
 65 783 80 795 110 795 c 0
 177 795 232 719 232 655 c 0
 232 632 225 610 209 594 c 0
 195 580 183 573 172 573 c 0
 151 573 132 596 105 647 c 0
EndSplineSet
Validated: 1
EndChar

StartChar: braceleft
Encoding: 123 123 92
Width: 588
VWidth: 0
Flags: HW
LayerCount: 2
Fore
SplineSet
264 53 m 0
 232 85 221 114 221 171 c 0
 221 252 199 288 148 288 c 0
 131 288 111 300 106 314 c 0
 101 328 85 340 72 340 c 0
 57 340 48 356 48 376 c 0
 48 390 52 406 61 420 c 0
 68 431 93 443 117 446 c 0
 159 452 169 467 241 625 c 0
 254 653 294 706 329 742 c 0
 382 797 405 808 462 808 c 0
 500 808 536 800 542 791 c 0
 545 787 546 781 546 776 c 0
 546 750 519 713 497 713 c 0
 495 713 493 713 491 714 c 0
 488 715 485 716 482 716 c 0
 436 716 347 618 327 540 c 0
 316 498 299 458 289 452 c 0
 279 446 264 424 257 404 c 0
 254 396 253 389 253 382 c 0
 253 366 262 352 282 336 c 0
 310 314 325 280 333 214 c 0
 343 132 350 119 395 102 c 0
 429 89 446 71 446 47 c 0
 446 20 418 7 382 7 c 0
 343 7 294 23 264 53 c 0
EndSplineSet
Validated: 1
EndChar

StartChar: braceright
Encoding: 125 125 93
Width: 526
VWidth: 0
Flags: HW
LayerCount: 2
Fore
SplineSet
86 22 m 0
 59 35 45 58 45 77 c 0
 45 94 56 109 78 112 c 0
 180 127 182 130 194 211 c 0
 203 274 220 303 278 359 c 2
 350 429 l 1
 309 456 l 2
 273 480 267 495 267 578 c 0
 267 663 251 705 217 705 c 0
 211 705 204 704 197 701 c 0
 190 698 184 697 177 697 c 0
 138 697 102 736 102 769 c 0
 102 782 107 795 121 803 c 0
 132 810 153 813 178 813 c 0
 225 813 285 802 311 785 c 0
 351 759 383 670 383 586 c 0
 383 548 395 529 432 507 c 0
 467 486 477 476 477 442 c 0
 477 433 476 423 475 411 c 0
 470 347 447 315 406 314 c 0
 396 314 368 296 342 274 c 0
 308 245 297 224 297 184 c 0
 297 181 297 177 297 173 c 0
 297 169 297 166 297 162 c 0
 297 120 286 98 244 56 c 0
 207 19 181 2 151 2 c 0
 132 2 111 9 86 22 c 0
EndSplineSet
Validated: 1
EndChar

StartChar: asciitilde
Encoding: 126 126 94
Width: 759
VWidth: 0
Flags: HW
LayerCount: 2
Fore
SplineSet
63 299 m 0
 62 301 62 303 62 306 c 0
 62 349 169 449 234 461 c 0
 238 462 243 462 249 462 c 0
 280 462 332 451 373 435 c 0
 430 412 475 401 512 401 c 0
 551 401 581 413 608 438 c 0
 629 458 650 467 666 467 c 0
 687 467 701 451 701 420 c 0
 701 416 701 411 700 406 c 0
 691 330 621 287 520 287 c 0
 473 287 418 297 361 316 c 0
 321 330 297 337 275 337 c 0
 250 337 227 328 181 308 c 0
 124 284 99 272 85 272 c 0
 73 272 70 282 63 299 c 0
EndSplineSet
Validated: 1
EndChar
